<svg width="547" height="547" viewBox="0 0 547 547" fill="none" xmlns="http://www.w3.org/2000/svg">
<g filter="url(#filter0_d_59_1049)">
<rect x="64.3174" y="69.4443" width="377.874" height="377.874" rx="30" fill="white" shape-rendering="crispEdges"/>
<path d="M250.034 355.381C239.533 355.381 229.872 347.741 227.051 337.23C223.526 324.047 230.977 310.35 243.65 306.688C245.384 306.193 247.175 305.896 248.967 305.797C277.057 304.431 300.021 282.064 303.127 253.046C303.47 249.819 304.461 246.672 306.081 243.723C309.225 237.943 314.142 233.944 320.297 232.163C322.375 231.569 324.509 231.252 326.643 231.252C337.029 231.252 346.577 238.794 349.359 249.186C351.074 255.579 350.312 262.012 347.168 267.812C344.023 273.592 339.107 277.59 332.951 279.372C331.255 279.867 329.521 280.164 327.787 280.243C299.735 281.708 276.866 304.134 273.817 333.133C272.941 341.506 267.242 351.343 256.475 354.451C254.379 355.065 252.206 355.362 250.053 355.362L250.034 355.381Z" fill="url(#paint0_linear_59_1049)"/>
<path d="M180.942 355.381C170.441 355.381 160.779 347.741 157.959 337.23C154.433 324.047 161.885 310.35 174.558 306.688C176.292 306.193 178.083 305.896 179.874 305.797C207.965 304.431 230.928 282.064 234.035 253.046C234.378 249.819 235.369 246.672 236.988 243.723C240.133 237.943 245.05 233.944 251.205 232.163C253.282 231.569 255.417 231.252 257.551 231.252C267.937 231.252 277.485 238.794 280.267 249.186C281.982 255.579 281.22 262.012 278.076 267.812C274.931 273.592 270.014 277.59 263.859 279.372C262.163 279.867 260.429 280.164 258.694 280.243C230.642 281.708 207.774 304.134 204.725 333.133C203.848 341.506 198.15 351.343 187.383 354.451C185.287 355.065 183.114 355.362 180.961 355.362L180.942 355.381Z" fill="url(#paint1_linear_59_1049)"/>
<path d="M180.111 285.51C169.611 285.51 159.949 277.87 157.129 267.359C153.603 254.176 161.054 240.479 173.727 236.817C175.462 236.322 177.253 236.025 179.044 235.926C207.134 234.56 230.098 212.193 233.204 183.175C233.547 179.948 234.538 176.801 236.158 173.852C239.303 168.072 244.219 164.073 250.375 162.292C252.433 161.678 254.567 161.381 256.702 161.381C267.069 161.381 276.636 168.923 279.418 179.315C281.133 185.708 280.371 192.141 277.226 197.941C274.082 203.721 269.165 207.719 263.01 209.501C261.314 209.996 259.579 210.293 257.845 210.372C229.793 211.837 206.925 234.263 203.876 263.262C202.999 271.635 197.301 281.472 186.534 284.58C184.437 285.194 182.265 285.491 180.111 285.491V285.51Z" fill="url(#paint2_linear_59_1049)"/>
<path d="M346.907 329.92C346.907 342.492 337.094 352.685 324.99 352.685C312.885 352.685 303.072 342.492 303.072 329.92C303.072 317.347 312.885 307.155 324.99 307.155C337.094 307.155 346.907 317.347 346.907 329.92Z" fill="url(#paint3_linear_59_1049)"/>
<path d="M346.907 187.467C346.907 200.04 337.094 210.232 324.99 210.232C312.885 210.232 303.072 200.04 303.072 187.467C303.072 174.894 312.885 164.702 324.99 164.702C337.094 164.702 346.907 174.894 346.907 187.467Z" fill="url(#paint4_linear_59_1049)"/>
<path d="M206.094 187.467C206.094 200.04 196.281 210.232 184.176 210.232C172.072 210.232 162.259 200.04 162.259 187.467C162.259 174.894 172.072 164.702 184.176 164.702C196.281 164.702 206.094 174.894 206.094 187.467Z" fill="url(#paint5_linear_59_1049)"/>
</g>
<defs>
<filter id="filter0_d_59_1049" x="0.317383" y="0.444336" width="545.874" height="545.874" filterUnits="userSpaceOnUse" color-interpolation-filters="sRGB">
<feFlood flood-opacity="0" result="BackgroundImageFix"/>
<feColorMatrix in="SourceAlpha" type="matrix" values="0 0 0 0 0 0 0 0 0 0 0 0 0 0 0 0 0 0 127 0" result="hardAlpha"/>
<feOffset dx="20" dy="15"/>
<feGaussianBlur stdDeviation="42"/>
<feComposite in2="hardAlpha" operator="out"/>
<feColorMatrix type="matrix" values="0 0 0 0 0 0 0 0 0 0 0 0 0 0 0 0 0 0 0.25 0"/>
<feBlend mode="normal" in2="BackgroundImageFix" result="effect1_dropShadow_59_1049"/>
<feBlend mode="normal" in="SourceGraphic" in2="effect1_dropShadow_59_1049" result="shape"/>
</filter>
<linearGradient id="paint0_linear_59_1049" x1="253.254" y1="176.344" x2="253.254" y2="355.381" gradientUnits="userSpaceOnUse">
<stop stop-color="#016DFF"/>
<stop offset="1" stop-color="#2AEFC1"/>
</linearGradient>
<linearGradient id="paint1_linear_59_1049" x1="253.254" y1="176.344" x2="253.254" y2="355.381" gradientUnits="userSpaceOnUse">
<stop stop-color="#016DFF"/>
<stop offset="1" stop-color="#2AEFC1"/>
</linearGradient>
<linearGradient id="paint2_linear_59_1049" x1="253.254" y1="176.344" x2="253.254" y2="355.381" gradientUnits="userSpaceOnUse">
<stop stop-color="#016DFF"/>
<stop offset="1" stop-color="#2AEFC1"/>
</linearGradient>
<linearGradient id="paint3_linear_59_1049" x1="253.254" y1="176.344" x2="253.254" y2="355.381" gradientUnits="userSpaceOnUse">
<stop stop-color="#016DFF"/>
<stop offset="1" stop-color="#2AEFC1"/>
</linearGradient>
<linearGradient id="paint4_linear_59_1049" x1="253.254" y1="176.344" x2="253.254" y2="355.381" gradientUnits="userSpaceOnUse">
<stop stop-color="#016DFF"/>
<stop offset="1" stop-color="#2AEFC1"/>
</linearGradient>
<linearGradient id="paint5_linear_59_1049" x1="253.254" y1="176.344" x2="253.254" y2="355.381" gradientUnits="userSpaceOnUse">
<stop stop-color="#016DFF"/>
<stop offset="1" stop-color="#2AEFC1"/>
</linearGradient>
</defs>
</svg>
