<svg width="379" height="379" viewBox="0 0 379 379" fill="none" xmlns="http://www.w3.org/2000/svg">
<rect x="0.569336" y="0.444336" width="377.874" height="377.874" rx="30" fill="#011667"/>
<path d="M186.286 286.381C175.785 286.381 166.123 278.741 163.303 268.23C159.777 255.047 167.229 241.35 179.902 237.688C181.636 237.193 183.427 236.896 185.219 236.797C213.309 235.431 236.273 213.064 239.379 184.046C239.722 180.819 240.713 177.672 242.333 174.723C245.477 168.943 250.394 164.944 256.549 163.163C258.627 162.569 260.761 162.252 262.895 162.252C273.281 162.252 282.829 169.794 285.611 180.186C287.326 186.579 286.564 193.012 283.42 198.812C280.275 204.592 275.359 208.59 269.203 210.372C267.507 210.867 265.773 211.164 264.039 211.243C235.987 212.708 213.118 235.134 210.069 264.133C209.192 272.506 203.494 282.343 192.727 285.451C190.631 286.065 188.458 286.362 186.305 286.362L186.286 286.381Z" fill="url(#paint0_linear_59_1045)"/>
<path d="M117.194 286.381C106.693 286.381 97.0312 278.741 94.2108 268.23C90.6852 255.047 98.1365 241.35 110.809 237.688C112.544 237.193 114.335 236.896 116.126 236.797C144.216 235.431 167.18 213.064 170.287 184.046C170.63 180.819 171.621 177.672 173.24 174.723C176.385 168.943 181.302 164.944 187.457 163.163C189.534 162.569 191.669 162.252 193.803 162.252C204.189 162.252 213.737 169.794 216.519 180.186C218.234 186.579 217.472 193.012 214.327 198.812C211.183 204.592 206.266 208.59 200.111 210.372C198.415 210.867 196.681 211.164 194.946 211.243C166.894 212.708 144.026 235.134 140.977 264.133C140.1 272.506 134.402 282.343 123.635 285.451C121.539 286.065 119.366 286.362 117.213 286.362L117.194 286.381Z" fill="url(#paint1_linear_59_1045)"/>
<path d="M116.363 216.51C105.863 216.51 96.201 208.87 93.3806 198.359C89.855 185.176 97.3064 171.479 109.979 167.817C111.713 167.322 113.505 167.025 115.296 166.926C143.386 165.56 166.35 143.193 169.456 114.175C169.799 110.948 170.79 107.801 172.41 104.852C175.555 99.0718 180.471 95.0733 186.627 93.2919C188.685 92.6783 190.819 92.3813 192.954 92.3813C203.321 92.3813 212.887 99.9229 215.67 110.315C217.385 116.708 216.623 123.141 213.478 128.941C210.334 134.721 205.417 138.719 199.262 140.501C197.566 140.996 195.831 141.293 194.097 141.372C166.045 142.837 143.177 165.263 140.128 194.262C139.251 202.635 133.553 212.472 122.786 215.58C120.689 216.194 118.517 216.491 116.363 216.491V216.51Z" fill="url(#paint2_linear_59_1045)"/>
<path d="M283.159 260.92C283.159 273.492 273.346 283.685 261.242 283.685C249.137 283.685 239.324 273.492 239.324 260.92C239.324 248.347 249.137 238.155 261.242 238.155C273.346 238.155 283.159 248.347 283.159 260.92Z" fill="url(#paint3_linear_59_1045)"/>
<path d="M283.159 118.467C283.159 131.04 273.346 141.232 261.242 141.232C249.137 141.232 239.324 131.04 239.324 118.467C239.324 105.894 249.137 95.7021 261.242 95.7021C273.346 95.7021 283.159 105.894 283.159 118.467Z" fill="url(#paint4_linear_59_1045)"/>
<path d="M142.346 118.467C142.346 131.04 132.533 141.232 120.428 141.232C108.324 141.232 98.5108 131.04 98.5108 118.467C98.5108 105.894 108.324 95.7021 120.428 95.7021C132.533 95.7021 142.346 105.894 142.346 118.467Z" fill="url(#paint5_linear_59_1045)"/>
<defs>
<linearGradient id="paint0_linear_59_1045" x1="189.506" y1="107.344" x2="189.506" y2="286.381" gradientUnits="userSpaceOnUse">
<stop stop-color="#016DFF"/>
<stop offset="1" stop-color="#2AEFC1"/>
</linearGradient>
<linearGradient id="paint1_linear_59_1045" x1="189.506" y1="107.344" x2="189.506" y2="286.381" gradientUnits="userSpaceOnUse">
<stop stop-color="#016DFF"/>
<stop offset="1" stop-color="#2AEFC1"/>
</linearGradient>
<linearGradient id="paint2_linear_59_1045" x1="189.506" y1="107.344" x2="189.506" y2="286.381" gradientUnits="userSpaceOnUse">
<stop stop-color="#016DFF"/>
<stop offset="1" stop-color="#2AEFC1"/>
</linearGradient>
<linearGradient id="paint3_linear_59_1045" x1="189.506" y1="107.344" x2="189.506" y2="286.381" gradientUnits="userSpaceOnUse">
<stop stop-color="#016DFF"/>
<stop offset="1" stop-color="#2AEFC1"/>
</linearGradient>
<linearGradient id="paint4_linear_59_1045" x1="189.506" y1="107.344" x2="189.506" y2="286.381" gradientUnits="userSpaceOnUse">
<stop stop-color="#016DFF"/>
<stop offset="1" stop-color="#2AEFC1"/>
</linearGradient>
<linearGradient id="paint5_linear_59_1045" x1="189.506" y1="107.344" x2="189.506" y2="286.381" gradientUnits="userSpaceOnUse">
<stop stop-color="#016DFF"/>
<stop offset="1" stop-color="#2AEFC1"/>
</linearGradient>
</defs>
</svg>
