<svg width="1542" height="172" viewBox="0 0 1542 172" fill="none" xmlns="http://www.w3.org/2000/svg">
<path d="M83.2759 171.394C74.0085 171.394 65.4812 164.651 62.992 155.374C59.8805 143.739 66.4568 131.65 77.6415 128.419C79.172 127.982 80.753 127.72 82.334 127.632C107.125 126.427 127.392 106.686 130.134 81.0759C130.437 78.2283 131.311 75.4507 132.741 72.8477C135.516 67.7466 139.855 64.2177 145.288 62.6454C147.121 62.1213 149.005 61.8418 150.889 61.8418C160.055 61.8418 168.482 68.4978 170.937 77.6693C172.451 83.312 171.778 88.9896 169.003 94.1082C166.228 99.2094 161.888 102.738 156.456 104.311C154.959 104.747 153.428 105.009 151.898 105.079C127.14 106.372 106.957 126.165 104.266 151.758C103.492 159.148 98.4636 167.83 88.9607 170.573C87.1106 171.114 85.1933 171.376 83.2927 171.376L83.2759 171.394Z" fill="url(#paint0_linear_59_1093)"/>
<path d="M22.2973 171.394C13.03 171.394 4.5027 164.651 2.01347 155.374C-1.09807 143.739 5.47821 131.65 16.6629 128.419C18.1935 127.982 19.7745 127.72 21.3555 127.632C46.1469 126.427 66.4139 106.686 69.1554 81.0759C69.4582 78.2283 70.3328 75.4507 71.7624 72.8477C74.5376 67.7466 78.8769 64.2177 84.3095 62.6454C86.1428 62.1213 88.0265 61.8418 89.9102 61.8418C99.0767 61.8418 107.503 68.4978 109.959 77.6693C111.472 83.312 110.8 88.9896 108.024 94.1082C105.249 99.2094 100.91 102.738 95.4774 104.311C93.9805 104.747 92.4499 105.009 90.9194 105.079C66.1616 106.372 45.9787 126.165 43.2876 151.758C42.5139 159.148 37.485 167.83 27.9822 170.573C26.1321 171.114 24.2147 171.376 22.3142 171.376L22.2973 171.394Z" fill="url(#paint1_linear_59_1093)"/>
<path d="M21.5647 109.728C12.2973 109.728 3.77003 102.985 1.2808 93.7085C-1.83074 82.0737 4.74554 69.9847 15.9303 66.7528C17.4608 66.3161 19.0418 66.054 20.6228 65.9667C45.4142 64.7613 65.6813 45.0206 68.4228 19.4101C68.7255 16.5625 69.6001 13.7849 71.0297 11.1819C73.8049 6.08076 78.1442 2.5519 83.5768 0.979629C85.3933 0.43807 87.277 0.176025 89.1608 0.176025C98.3104 0.176025 106.754 6.83196 109.209 16.0035C110.723 21.6462 110.05 27.3238 107.275 32.4424C104.5 37.5436 100.16 41.0724 94.7279 42.6447C93.231 43.0815 91.7004 43.3435 90.1699 43.4134C65.4121 44.7061 45.2292 64.4992 42.5381 90.0922C41.7644 97.4819 36.7355 106.164 27.2327 108.907C25.3826 109.449 23.4652 109.711 21.5647 109.711V109.728Z" fill="url(#paint2_linear_59_1093)"/>
<path d="M168.773 148.922C168.773 160.019 160.112 169.014 149.429 169.014C138.746 169.014 130.086 160.019 130.086 148.922C130.086 137.826 138.746 128.831 149.429 128.831C160.112 128.831 168.773 137.826 168.773 148.922Z" fill="url(#paint3_linear_59_1093)"/>
<path d="M168.773 23.1985C168.773 34.2948 160.112 43.2901 149.429 43.2901C138.746 43.2901 130.086 34.2948 130.086 23.1985C130.086 12.1022 138.746 3.10681 149.429 3.10681C160.112 3.10681 168.773 12.1022 168.773 23.1985Z" fill="url(#paint4_linear_59_1093)"/>
<path d="M44.4956 23.1985C44.4956 34.2948 35.8352 43.2901 25.1521 43.2901C14.469 43.2901 5.80857 34.2948 5.80857 23.1985C5.80857 12.1022 14.469 3.10681 25.1521 3.10681C35.8352 3.10681 44.4956 12.1022 44.4956 23.1985Z" fill="url(#paint5_linear_59_1093)"/>
<path d="M1514.33 123.687L1540.36 127.871C1537.34 135.309 1525.95 159.251 1490.85 159.251C1474.58 159.251 1462.26 154.602 1452.26 145.072C1441.11 134.612 1436.46 121.594 1436.46 105.788C1436.46 85.7971 1444.59 73.4772 1451.8 66.2713C1463.65 54.6488 1477.6 52.0918 1489.69 52.0918C1510.14 52.0918 1522 60.2276 1528.97 68.5958C1539.67 81.3806 1541.06 97.1872 1541.06 108.112V110.437H1465.75C1465.75 116.481 1467.37 122.989 1470.63 127.406C1473.65 131.59 1479.93 136.936 1490.85 136.936C1501.54 136.936 1509.68 131.822 1514.33 123.687ZM1466.68 92.3057H1514.33C1512 78.5912 1500.85 72.0825 1490.39 72.0825C1479.93 72.0825 1469 78.8236 1466.68 92.3057Z" fill="#011667"/>
<path d="M1317.4 155.997V55.3461H1345.76V68.3633C1351.11 60.9249 1360.64 52.0918 1376.91 52.0918C1385.74 52.0918 1398.76 54.6488 1406.66 64.4117C1413.64 73.0123 1414.57 83.0077 1414.57 92.7706V155.997H1386.21V101.139C1386.21 95.56 1385.97 86.7269 1380.86 81.3806C1376.44 76.7316 1370.4 76.2666 1367.61 76.2666C1360.17 76.2666 1354.36 78.8236 1350.18 85.0998C1345.99 91.6084 1345.76 98.8144 1345.76 104.626V155.997H1317.4Z" fill="#011667"/>
<path fill-rule="evenodd" clip-rule="evenodd" d="M1290.27 56.1263C1286.63 59.6519 1281.66 61.8215 1276.19 61.8215C1270.72 61.8215 1265.76 59.6519 1262.11 56.1262L1262.11 155.995H1290.27L1290.27 56.1263Z" fill="#011667"/>
<ellipse cx="1276.19" cy="32.5703" rx="20.2512" ry="20.2512" fill="#016DFF"/>
<path d="M1137.84 155.997V14.7H1166.2V68.363C1171.55 60.9246 1181.08 52.0915 1197.35 52.0915C1206.18 52.0915 1219.2 54.6485 1227.1 64.4114C1234.08 73.012 1235.01 83.0074 1235.01 92.7703V155.997H1206.65V101.139C1206.65 95.5597 1206.42 86.7266 1201.3 81.3803C1196.89 76.7313 1190.84 76.2664 1188.05 76.2664C1180.61 76.2664 1174.8 78.8233 1170.62 85.0995C1166.43 91.6081 1166.2 98.8141 1166.2 104.625V155.997H1137.84Z" fill="#011667"/>
<path d="M1116.46 58.1355V86.0296C1110.42 80.4508 1102.98 77.1965 1093.22 77.1965C1074.39 77.1965 1064.86 90.911 1064.86 105.555C1064.86 122.059 1077.18 134.147 1094.15 134.147C1100.42 134.147 1108.79 132.287 1116.46 125.314V152.975C1110.89 155.765 1102.05 159.251 1090.43 159.251C1074.62 159.251 1060.68 153.208 1051.61 144.607C1043.94 137.401 1035.57 124.849 1035.57 106.02C1035.57 88.3541 1042.78 74.1746 1053.01 65.109C1065.32 54.1839 1079.5 52.0918 1089.27 52.0918C1099.73 52.0918 1108.33 54.1838 1116.46 58.1355Z" fill="#011667"/>
<path d="M985.289 68.3633V55.3461H1013.65V155.997H985.289V142.98C975.062 157.624 961.579 159.251 954.373 159.251C923.458 159.251 903.002 135.077 903.002 105.555C903.002 75.8017 923.225 52.0918 952.979 52.0918C960.65 52.0918 975.759 53.4865 985.289 68.3633ZM960.185 77.1965C943.913 77.1965 932.291 89.5163 932.291 105.555C932.291 121.594 943.913 134.147 960.185 134.147C976.456 134.147 988.079 121.594 988.079 105.555C988.079 89.5163 976.456 77.1965 960.185 77.1965Z" fill="#011667"/>
<path d="M724.472 155.997V55.3461H752.831V66.7362C763.523 53.254 776.773 52.0918 782.817 52.0918C803.97 52.0918 812.105 65.3415 814.662 70.4554C819.544 62.5521 829.539 52.0918 846.973 52.0918C862.547 52.0918 870.218 59.2978 874.17 64.4117C880.678 73.0123 881.143 81.613 881.143 92.7706V155.997H852.784V101.139C852.784 89.2839 850.227 83.9375 848.135 81.3806C844.416 76.7316 839.302 76.2666 836.513 76.2666C828.842 76.2666 823.96 79.7534 820.939 85.0998C817.219 91.1435 816.987 99.2792 816.987 104.626V155.997H788.628V101.139C788.628 89.2839 786.071 83.9375 783.979 81.3806C780.26 76.7316 775.146 76.2666 772.356 76.2666C764.686 76.2666 759.804 79.7534 756.782 85.0998C753.063 91.1435 752.831 99.2792 752.831 104.626V155.997H724.472Z" fill="#011667"/>
<path d="M592.226 155.997L633.517 109.017C636.045 106.068 652.477 87.318 657.534 79.7338C661.326 74.0457 665.75 65.4082 665.75 57.192C665.75 44.5518 656.691 35.9143 644.893 35.9143C630.568 35.9143 622.984 47.2905 622.562 59.2987H594.332C595.596 30.6475 615.821 12.3191 643.629 12.3191C676.283 12.3191 693.137 34.6502 693.137 56.9814C693.137 78.6805 678.601 94.2701 667.646 106.068L643.419 132.402H694.19V155.997H592.226Z" fill="#016DFF"/>
<path d="M576.35 62.7845L562.403 79.2885C555.662 73.0123 548.921 72.5474 545.899 72.5474C539.158 72.5474 534.974 75.8017 534.974 80.6832C534.974 83.2402 536.136 87.1918 544.039 89.7488L550.781 91.8408C558.684 94.3978 570.539 98.3494 576.35 106.253C579.372 110.437 581.464 116.481 581.464 122.989C581.464 132.055 578.442 141.12 570.306 148.559C562.171 155.997 552.408 159.251 540.088 159.251C519.167 159.251 507.312 149.256 501.036 142.515L515.913 125.314C521.492 131.822 529.86 136.936 538.228 136.936C546.132 136.936 552.175 132.985 552.175 126.011C552.175 119.735 547.061 117.178 543.342 115.783L536.833 113.459C529.628 110.902 521.259 107.647 515.216 101.371C510.567 96.4898 507.545 90.2137 507.545 82.0779C507.545 72.315 512.194 64.1792 518.005 59.2978C525.908 53.0216 536.136 52.0918 544.272 52.0918C551.71 52.0918 563.565 53.0216 576.35 62.7845Z" fill="#011667"/>
<path d="M486.912 62.7845L472.965 79.2885C466.224 73.0123 459.482 72.5474 456.461 72.5474C449.72 72.5474 445.535 75.8017 445.535 80.6832C445.535 83.2402 446.698 87.1918 454.601 89.7488L461.342 91.8408C469.245 94.3978 481.1 98.3494 486.912 106.253C489.933 110.437 492.026 116.481 492.026 122.989C492.026 132.055 489.004 141.12 480.868 148.559C472.732 155.997 462.969 159.251 450.649 159.251C429.729 159.251 417.874 149.256 411.598 142.515L426.474 125.314C432.053 131.822 440.422 136.936 448.79 136.936C456.693 136.936 462.737 132.985 462.737 126.011C462.737 119.735 457.623 117.178 453.904 115.783L447.395 113.459C440.189 110.902 431.821 107.647 425.777 101.371C421.128 96.4898 418.106 90.2137 418.106 82.0779C418.106 72.315 422.755 64.1792 428.567 59.2978C436.47 53.0216 446.698 52.0918 454.833 52.0918C462.272 52.0918 474.127 53.0216 486.912 62.7845Z" fill="#011667"/>
<path d="M343.519 52.0918C362.58 52.0918 375.597 58.368 384.198 66.2713C394.193 75.3368 401.167 89.2839 401.167 105.788C401.167 122.059 394.193 136.006 384.198 145.072C375.597 152.975 362.58 159.251 343.519 159.251C324.458 159.251 311.441 152.975 302.84 145.072C292.845 136.006 285.871 122.059 285.871 105.788C285.871 89.2839 292.845 75.3368 302.84 66.2713C311.441 58.368 324.458 52.0918 343.519 52.0918ZM343.519 134.147C360.023 134.147 371.878 121.13 371.878 105.788C371.878 89.9812 359.79 77.1965 343.519 77.1965C327.247 77.1965 315.16 89.9812 315.16 105.788C315.16 121.13 327.015 134.147 343.519 134.147Z" fill="#011667"/>
<path d="M276.216 79.5206H256.69V155.997H228.331V79.5206H217.174V55.3458H228.331V20.9431H256.69V55.3458H276.216V79.5206Z" fill="#011667"/>
<defs>
<linearGradient id="paint0_linear_59_1093" x1="86.1177" y1="13.3818" x2="86.1177" y2="171.394" gradientUnits="userSpaceOnUse">
<stop stop-color="#016DFF"/>
<stop offset="1" stop-color="#2AEFC1"/>
</linearGradient>
<linearGradient id="paint1_linear_59_1093" x1="86.1177" y1="13.3818" x2="86.1177" y2="171.394" gradientUnits="userSpaceOnUse">
<stop stop-color="#016DFF"/>
<stop offset="1" stop-color="#2AEFC1"/>
</linearGradient>
<linearGradient id="paint2_linear_59_1093" x1="86.1177" y1="13.3818" x2="86.1177" y2="171.394" gradientUnits="userSpaceOnUse">
<stop stop-color="#016DFF"/>
<stop offset="1" stop-color="#2AEFC1"/>
</linearGradient>
<linearGradient id="paint3_linear_59_1093" x1="86.1177" y1="13.3818" x2="86.1177" y2="171.394" gradientUnits="userSpaceOnUse">
<stop stop-color="#016DFF"/>
<stop offset="1" stop-color="#2AEFC1"/>
</linearGradient>
<linearGradient id="paint4_linear_59_1093" x1="86.1177" y1="13.3818" x2="86.1177" y2="171.394" gradientUnits="userSpaceOnUse">
<stop stop-color="#016DFF"/>
<stop offset="1" stop-color="#2AEFC1"/>
</linearGradient>
<linearGradient id="paint5_linear_59_1093" x1="86.1177" y1="13.3818" x2="86.1177" y2="171.394" gradientUnits="userSpaceOnUse">
<stop stop-color="#016DFF"/>
<stop offset="1" stop-color="#2AEFC1"/>
</linearGradient>
</defs>
</svg>
