<svg width="1541" height="172" viewBox="0 0 1541 172" fill="none" xmlns="http://www.w3.org/2000/svg">
<path d="M82.8452 171.394C73.5779 171.394 65.0506 164.65 62.5614 155.374C59.4498 143.739 66.0261 131.65 77.2108 128.418C78.7414 127.982 80.3224 127.72 81.9034 127.632C106.695 126.427 126.962 106.686 129.703 81.0756C130.006 78.2281 130.881 75.4504 132.31 72.8475C135.085 67.7463 139.425 64.2174 144.857 62.6452C146.691 62.1211 148.574 61.8416 150.458 61.8416C159.625 61.8416 168.051 68.4975 170.507 77.6691C172.02 83.3118 171.347 88.9894 168.572 94.108C165.797 99.2091 161.458 102.738 156.025 104.31C154.528 104.747 152.998 105.009 151.467 105.079C126.71 106.372 106.527 126.165 103.835 151.758C103.062 159.147 98.0329 167.83 88.5301 170.573C86.68 171.114 84.7626 171.376 82.862 171.376L82.8452 171.394Z" fill="url(#paint0_linear_59_1074)"/>
<path d="M21.8667 171.394C12.5993 171.394 4.07204 164.65 1.5828 155.374C-1.52873 143.739 5.04755 131.65 16.2323 128.418C17.7628 127.982 19.3438 127.72 20.9248 127.632C45.7162 126.427 65.9833 106.686 68.7248 81.0756C69.0275 78.2281 69.9021 75.4504 71.3317 72.8475C74.1069 67.7463 78.4462 64.2174 83.8788 62.6452C85.7121 62.1211 87.5958 61.8416 89.4796 61.8416C98.646 61.8416 107.072 68.4975 109.528 77.6691C111.042 83.3118 110.369 88.9894 107.594 94.108C104.819 99.2091 100.479 102.738 95.0467 104.31C93.5498 104.747 92.0193 105.009 90.4887 105.079C65.731 106.372 45.548 126.165 42.857 151.758C42.0833 159.147 37.0543 167.83 27.5515 170.573C25.7014 171.114 23.7841 171.376 21.8835 171.376L21.8667 171.394Z" fill="url(#paint1_linear_59_1074)"/>
<path d="M21.134 109.728C11.8667 109.728 3.33937 102.985 0.850138 93.7082C-2.2614 82.0734 4.31488 69.9844 15.4996 66.7526C17.0301 66.3158 18.6111 66.0538 20.1921 65.9664C44.9835 64.761 65.2506 45.0203 67.9921 19.4099C68.2949 16.5623 69.1694 13.7846 70.5991 11.1817C73.3742 6.08052 77.7136 2.55165 83.1461 0.979384C84.9626 0.437826 86.8464 0.175781 88.7301 0.175781C97.8797 0.175781 106.323 6.83171 108.778 16.0033C110.292 21.646 109.619 27.3236 106.844 32.4422C104.069 37.5433 99.7298 41.0722 94.2972 42.6445C92.8003 43.0812 91.2698 43.3432 89.7392 43.4131C64.9815 44.7059 44.7985 64.499 42.1075 90.092C41.3338 97.4817 36.3049 106.164 26.8021 108.907C24.952 109.448 23.0346 109.71 21.134 109.71V109.728Z" fill="url(#paint2_linear_59_1074)"/>
<path d="M168.342 148.922C168.342 160.018 159.682 169.014 148.999 169.014C138.316 169.014 129.655 160.018 129.655 148.922C129.655 137.826 138.316 128.83 148.999 128.83C159.682 128.83 168.342 137.826 168.342 148.922Z" fill="url(#paint3_linear_59_1074)"/>
<path d="M168.342 23.1982C168.342 34.2946 159.682 43.2899 148.999 43.2899C138.316 43.2899 129.655 34.2946 129.655 23.1982C129.655 12.1019 138.316 3.10657 148.999 3.10657C159.682 3.10657 168.342 12.1019 168.342 23.1982Z" fill="url(#paint4_linear_59_1074)"/>
<path d="M44.065 23.1982C44.065 34.2946 35.4046 43.2899 24.7214 43.2899C14.0383 43.2899 5.37791 34.2946 5.37791 23.1982C5.37791 12.1019 14.0383 3.10657 24.7214 3.10657C35.4046 3.10657 44.065 12.1019 44.065 23.1982Z" fill="url(#paint5_linear_59_1074)"/>
<path d="M1513.9 123.686L1539.93 127.87C1536.91 135.309 1525.52 159.251 1490.42 159.251C1474.15 159.251 1461.83 154.602 1451.83 145.072C1440.68 134.611 1436.03 121.594 1436.03 105.788C1436.03 85.7969 1444.16 73.477 1451.37 66.271C1463.22 54.6485 1477.17 52.0916 1489.26 52.0916C1509.71 52.0916 1521.57 60.2273 1528.54 68.5955C1539.24 81.3803 1540.63 97.1869 1540.63 108.112V110.437H1465.32C1465.32 116.48 1466.94 122.989 1470.2 127.406C1473.22 131.59 1479.5 136.936 1490.42 136.936C1501.11 136.936 1509.25 131.822 1513.9 123.686ZM1466.25 92.3055H1513.9C1511.57 78.5909 1500.42 72.0823 1489.96 72.0823C1479.5 72.0823 1468.57 78.8234 1466.25 92.3055Z" fill="white"/>
<path d="M1316.97 155.997V55.3459H1345.33V68.3631C1350.68 60.9247 1360.21 52.0916 1376.48 52.0916C1385.31 52.0916 1398.33 54.6485 1406.23 64.4114C1413.21 73.0121 1414.14 83.0075 1414.14 92.7704V155.997H1385.78V101.139C1385.78 95.5598 1385.54 86.7267 1380.43 81.3803C1376.01 76.7313 1369.97 76.2664 1367.18 76.2664C1359.74 76.2664 1353.93 78.8234 1349.75 85.0995C1345.56 91.6081 1345.33 98.8141 1345.33 104.625V155.997H1316.97Z" fill="white"/>
<path fill-rule="evenodd" clip-rule="evenodd" d="M1289.84 56.126C1286.2 59.6517 1281.23 61.8212 1275.76 61.8212C1270.29 61.8212 1265.33 59.6517 1261.68 56.126L1261.68 155.995H1289.84L1289.84 56.126Z" fill="white"/>
<ellipse cx="1275.76" cy="32.5701" rx="20.2512" ry="20.2512" fill="#28E6C5"/>
<path d="M1137.41 155.997V14.6997H1165.77V68.3628C1171.12 60.9244 1180.65 52.0913 1196.92 52.0913C1205.75 52.0913 1218.77 54.6482 1226.67 64.4111C1233.65 73.0118 1234.58 83.0072 1234.58 92.7701V155.997H1206.22V101.138C1206.22 95.5595 1205.99 86.7264 1200.87 81.38C1196.45 76.731 1190.41 76.2661 1187.62 76.2661C1180.18 76.2661 1174.37 78.8231 1170.19 85.0992C1166 91.6078 1165.77 98.8138 1165.77 104.625V155.997H1137.41Z" fill="white"/>
<path d="M1116.03 58.1353V86.0293C1109.99 80.4505 1102.55 77.1962 1092.79 77.1962C1073.96 77.1962 1064.43 90.9108 1064.43 105.555C1064.43 122.059 1076.75 134.147 1093.72 134.147C1099.99 134.147 1108.36 132.287 1116.03 125.313V152.975C1110.45 155.764 1101.62 159.251 1090 159.251C1074.19 159.251 1060.25 153.208 1051.18 144.607C1043.51 137.401 1035.14 124.849 1035.14 106.02C1035.14 88.3538 1042.35 74.1743 1052.57 65.1088C1064.89 54.1836 1079.07 52.0916 1088.84 52.0916C1099.3 52.0916 1107.9 54.1836 1116.03 58.1353Z" fill="white"/>
<path d="M984.859 68.3631V55.3459H1013.22V155.997H984.859V142.98C974.631 157.624 961.149 159.251 953.943 159.251C923.027 159.251 902.571 135.076 902.571 105.555C902.571 75.8015 922.794 52.0916 952.548 52.0916C960.219 52.0916 975.328 53.4863 984.859 68.3631ZM959.754 77.1962C943.483 77.1962 931.86 89.5161 931.86 105.555C931.86 121.594 943.483 134.147 959.754 134.147C976.026 134.147 987.648 121.594 987.648 105.555C987.648 89.5161 976.026 77.1962 959.754 77.1962Z" fill="white"/>
<path d="M724.041 155.997V55.3459H752.4V66.7359C763.093 53.2538 776.342 52.0916 782.386 52.0916C803.539 52.0916 811.675 65.3412 814.232 70.4551C819.113 62.5518 829.109 52.0916 846.542 52.0916C862.117 52.0916 869.787 59.2975 873.739 64.4114C880.248 73.0121 880.713 81.6128 880.713 92.7704V155.997H852.354V101.139C852.354 89.2836 849.797 83.9373 847.705 81.3803C843.985 76.7313 838.872 76.2664 836.082 76.2664C828.411 76.2664 823.53 79.7532 820.508 85.0995C816.789 91.1432 816.556 99.279 816.556 104.625V155.997H788.197V101.139C788.197 89.2836 785.64 83.9373 783.548 81.3803C779.829 76.7313 774.715 76.2664 771.926 76.2664C764.255 76.2664 759.373 79.7532 756.352 85.0995C752.632 91.1432 752.4 99.279 752.4 104.625V155.997H724.041Z" fill="white"/>
<path d="M591.795 155.997L633.086 109.017C635.614 106.067 652.047 87.3178 657.103 79.7336C660.895 74.0455 665.319 65.408 665.319 57.1918C665.319 44.5515 656.26 35.914 644.463 35.914C630.137 35.914 622.553 47.2902 622.132 59.2985H593.902C595.166 30.6472 615.39 12.3188 643.199 12.3188C675.853 12.3188 692.706 34.65 692.706 56.9811C692.706 78.6802 678.17 94.2699 667.215 106.067L642.988 132.401H693.76V155.997H591.795Z" fill="#28E6C5"/>
<path d="M575.919 62.7843L561.972 79.2883C555.231 73.0121 548.49 72.5472 545.468 72.5472C538.727 72.5472 534.543 75.8015 534.543 80.683C534.543 83.2399 535.705 87.1916 543.609 89.7485L550.35 91.8406C558.253 94.3975 570.108 98.3492 575.919 106.253C578.941 110.437 581.033 116.48 581.033 122.989C581.033 132.055 578.011 141.12 569.876 148.559C561.74 155.997 551.977 159.251 539.657 159.251C518.737 159.251 506.882 149.256 500.605 142.515L515.482 125.313C521.061 131.822 529.429 136.936 537.798 136.936C545.701 136.936 551.745 132.984 551.745 126.011C551.745 119.735 546.631 117.178 542.911 115.783L536.403 113.458C529.197 110.902 520.829 107.647 514.785 101.371C510.136 96.4896 507.114 90.2134 507.114 82.0777C507.114 72.3148 511.763 64.179 517.574 59.2975C525.478 53.0214 535.705 52.0916 543.841 52.0916C551.28 52.0916 563.135 53.0214 575.919 62.7843Z" fill="white"/>
<path d="M486.481 62.7843L472.534 79.2883C465.793 73.0121 459.052 72.5472 456.03 72.5472C449.289 72.5472 445.105 75.8015 445.105 80.683C445.105 83.2399 446.267 87.1916 454.17 89.7485L460.911 91.8406C468.815 94.3975 480.67 98.3492 486.481 106.253C489.503 110.437 491.595 116.48 491.595 122.989C491.595 132.055 488.573 141.12 480.437 148.559C472.301 155.997 462.539 159.251 450.219 159.251C429.298 159.251 417.443 149.256 411.167 142.515L426.044 125.313C431.623 131.822 439.991 136.936 448.359 136.936C456.262 136.936 462.306 132.984 462.306 126.011C462.306 119.735 457.192 117.178 453.473 115.783L446.964 113.458C439.758 110.902 431.39 107.647 425.346 101.371C420.697 96.4896 417.676 90.2134 417.676 82.0777C417.676 72.3148 422.325 64.179 428.136 59.2975C436.039 53.0214 446.267 52.0916 454.403 52.0916C461.841 52.0916 473.696 53.0214 486.481 62.7843Z" fill="white"/>
<path d="M343.088 52.0916C362.149 52.0916 375.166 58.3677 383.767 66.271C393.762 75.3366 400.736 89.2836 400.736 105.788C400.736 122.059 393.762 136.006 383.767 145.072C375.166 152.975 362.149 159.251 343.088 159.251C324.027 159.251 311.01 152.975 302.409 145.072C292.414 136.006 285.44 122.059 285.44 105.788C285.44 89.2836 292.414 75.3366 302.409 66.271C311.01 58.3677 324.027 52.0916 343.088 52.0916ZM343.088 134.147C359.592 134.147 371.447 121.129 371.447 105.788C371.447 89.981 359.36 77.1962 343.088 77.1962C326.817 77.1962 314.729 89.981 314.729 105.788C314.729 121.129 326.584 134.147 343.088 134.147Z" fill="white"/>
<path d="M275.786 79.5204H256.26V155.997H227.901V79.5204H216.743V55.3455H227.901V20.9429H256.26V55.3455H275.786V79.5204Z" fill="white"/>
<defs>
<linearGradient id="paint0_linear_59_1074" x1="85.6871" y1="13.3815" x2="85.6871" y2="171.394" gradientUnits="userSpaceOnUse">
<stop stop-color="#016DFF"/>
<stop offset="1" stop-color="#2AEFC1"/>
</linearGradient>
<linearGradient id="paint1_linear_59_1074" x1="85.6871" y1="13.3815" x2="85.6871" y2="171.394" gradientUnits="userSpaceOnUse">
<stop stop-color="#016DFF"/>
<stop offset="1" stop-color="#2AEFC1"/>
</linearGradient>
<linearGradient id="paint2_linear_59_1074" x1="85.6871" y1="13.3815" x2="85.6871" y2="171.394" gradientUnits="userSpaceOnUse">
<stop stop-color="#016DFF"/>
<stop offset="1" stop-color="#2AEFC1"/>
</linearGradient>
<linearGradient id="paint3_linear_59_1074" x1="85.6871" y1="13.3815" x2="85.6871" y2="171.394" gradientUnits="userSpaceOnUse">
<stop stop-color="#016DFF"/>
<stop offset="1" stop-color="#2AEFC1"/>
</linearGradient>
<linearGradient id="paint4_linear_59_1074" x1="85.6871" y1="13.3815" x2="85.6871" y2="171.394" gradientUnits="userSpaceOnUse">
<stop stop-color="#016DFF"/>
<stop offset="1" stop-color="#2AEFC1"/>
</linearGradient>
<linearGradient id="paint5_linear_59_1074" x1="85.6871" y1="13.3815" x2="85.6871" y2="171.394" gradientUnits="userSpaceOnUse">
<stop stop-color="#016DFF"/>
<stop offset="1" stop-color="#2AEFC1"/>
</linearGradient>
</defs>
</svg>
