<svg width="1325" height="455" viewBox="0 0 1325 455" fill="none" xmlns="http://www.w3.org/2000/svg">
<path d="M658.445 262.222C644.294 262.222 631.272 251.925 627.471 237.76C622.72 219.993 632.762 201.533 649.841 196.598C652.178 195.931 654.593 195.531 657.007 195.398C694.864 193.557 725.812 163.413 729.998 124.305C730.46 119.957 731.796 115.716 733.979 111.741C738.217 103.951 744.843 98.5626 753.139 96.1617C755.938 95.3614 758.815 94.9346 761.691 94.9346C775.688 94.9346 788.556 105.098 792.305 119.103C794.617 127.72 793.589 136.39 789.352 144.206C785.114 151.995 778.488 157.384 770.192 159.785C767.906 160.452 765.569 160.852 763.232 160.959C725.427 162.933 694.607 193.157 690.498 232.238C689.316 243.522 681.637 256.78 667.126 260.968C664.301 261.795 661.373 262.196 658.471 262.196L658.445 262.222Z" fill="url(#paint0_linear_59_1131)"/>
<path d="M565.33 262.222C551.179 262.222 538.157 251.925 534.356 237.76C529.605 219.993 539.647 201.533 556.726 196.598C559.063 195.931 561.478 195.531 563.892 195.398C601.749 193.557 632.697 163.413 636.883 124.305C637.345 119.957 638.681 115.716 640.864 111.741C645.102 103.951 651.728 98.5626 660.023 96.1617C662.823 95.3614 665.699 94.9346 668.576 94.9346C682.573 94.9346 695.44 105.098 699.19 119.103C701.502 127.72 700.474 136.39 696.237 144.206C691.999 151.995 685.373 157.384 677.077 159.785C674.791 160.452 672.454 160.852 670.117 160.959C632.311 162.933 601.492 193.157 597.382 232.238C596.201 243.522 588.522 256.78 574.011 260.968C571.186 261.795 568.258 262.196 565.356 262.196L565.33 262.222Z" fill="url(#paint1_linear_59_1131)"/>
<path d="M564.211 168.058C550.06 168.058 537.039 157.761 533.237 143.595C528.486 125.829 538.528 107.369 555.607 102.434C557.945 101.767 560.359 101.367 562.773 101.233C600.63 99.3926 631.578 69.2483 635.764 30.1407C636.227 25.7925 637.562 21.5509 639.745 17.5761C643.983 9.78664 650.609 4.39801 658.905 1.99713C661.678 1.17017 664.555 0.77002 667.431 0.77002C681.403 0.77002 694.296 10.9337 698.046 24.9388C700.357 33.5553 699.33 42.2251 695.092 50.0413C690.854 57.8308 684.228 63.2194 675.933 65.6203C673.647 66.2872 671.31 66.6874 668.972 66.7941C631.167 68.7681 600.347 98.9925 596.238 138.073C595.057 149.357 587.377 162.616 572.866 166.804C570.041 167.631 567.113 168.031 564.211 168.031V168.058Z" fill="url(#paint2_linear_59_1131)"/>
<path d="M789 227.908C789 244.852 775.776 258.588 759.462 258.588C743.149 258.588 729.925 244.852 729.925 227.908C729.925 210.963 743.149 197.227 759.462 197.227C775.776 197.227 789 210.963 789 227.908Z" fill="url(#paint3_linear_59_1131)"/>
<path d="M789 35.9256C789 52.8699 775.776 66.6059 759.462 66.6059C743.149 66.6059 729.925 52.8699 729.925 35.9256C729.925 18.9814 743.149 5.24537 759.462 5.24537C775.776 5.24537 789 18.9814 789 35.9256Z" fill="url(#paint4_linear_59_1131)"/>
<path d="M599.227 35.9256C599.227 52.8699 586.003 66.6059 569.689 66.6059C553.376 66.6059 540.151 52.8699 540.151 35.9256C540.151 18.9814 553.376 5.24537 569.689 5.24537C586.003 5.24537 599.227 18.9814 599.227 35.9256Z" fill="url(#paint5_linear_59_1131)"/>
<path d="M1298 418.589L1324.03 422.773C1321.01 430.212 1309.62 454.154 1274.52 454.154C1258.25 454.154 1245.93 449.505 1235.93 439.975C1224.77 429.515 1220.12 416.497 1220.12 400.691C1220.12 380.7 1228.26 368.38 1235.47 361.174C1247.32 349.552 1261.27 346.995 1273.36 346.995C1293.81 346.995 1305.67 355.13 1312.64 363.499C1323.33 376.283 1324.73 392.09 1324.73 403.015V405.34H1249.41C1249.41 411.383 1251.04 417.892 1254.3 422.309C1257.32 426.493 1263.59 431.839 1274.52 431.839C1285.21 431.839 1293.35 426.725 1298 418.589ZM1250.34 387.209H1298C1295.67 373.494 1284.51 366.985 1274.05 366.985C1263.59 366.985 1252.67 373.726 1250.34 387.209Z" fill="white"/>
<path d="M1101.07 450.9V350.249H1129.43V363.266C1134.77 355.828 1144.3 346.995 1160.58 346.995C1169.41 346.995 1182.43 349.552 1190.33 359.315C1197.3 367.915 1198.23 377.911 1198.23 387.673V450.9H1169.87V396.042C1169.87 390.463 1169.64 381.63 1164.53 376.283C1160.11 371.634 1154.07 371.169 1151.28 371.169C1143.84 371.169 1138.03 373.726 1133.84 380.003C1129.66 386.511 1129.43 393.717 1129.43 399.528V450.9H1101.07Z" fill="white"/>
<path fill-rule="evenodd" clip-rule="evenodd" d="M1073.94 351.029C1070.3 354.555 1065.33 356.725 1059.86 356.725C1054.39 356.725 1049.42 354.555 1045.78 351.029L1045.78 450.898H1073.94L1073.94 351.029Z" fill="white"/>
<ellipse cx="1059.86" cy="327.473" rx="20.2512" ry="20.2512" fill="#28E6C5"/>
<path d="M921.51 450.9V309.603H949.869V363.266C955.215 355.828 964.746 346.995 981.017 346.995C989.85 346.995 1002.87 349.552 1010.77 359.314C1017.74 367.915 1018.67 377.91 1018.67 387.673V450.9H990.315V396.042C990.315 390.463 990.083 381.63 984.969 376.283C980.552 371.634 974.509 371.169 971.719 371.169C964.281 371.169 958.469 373.726 954.285 380.003C950.101 386.511 949.869 393.717 949.869 399.528V450.9H921.51Z" fill="white"/>
<path d="M900.131 353.038V380.932C894.087 375.354 886.649 372.099 876.886 372.099C858.058 372.099 848.527 385.814 848.527 400.458C848.527 416.962 860.847 429.05 877.816 429.05C884.092 429.05 892.46 427.19 900.131 420.217V447.878C894.552 450.668 885.719 454.154 874.097 454.154C858.29 454.154 844.343 448.111 835.277 439.51C827.606 432.304 819.238 419.752 819.238 400.923C819.238 383.257 826.444 369.077 836.672 360.012C848.992 349.087 863.171 346.995 872.934 346.995C883.395 346.995 891.995 349.087 900.131 353.038Z" fill="white"/>
<path d="M768.956 363.266V350.249H797.315V450.9H768.956V437.883C758.729 452.527 745.246 454.154 738.04 454.154C707.125 454.154 686.669 429.979 686.669 400.458C686.669 370.705 706.892 346.995 736.646 346.995C744.317 346.995 759.426 348.389 768.956 363.266ZM743.852 372.099C727.58 372.099 715.958 384.419 715.958 400.458C715.958 416.497 727.58 429.05 743.852 429.05C760.123 429.05 771.746 416.497 771.746 400.458C771.746 384.419 760.123 372.099 743.852 372.099Z" fill="white"/>
<path d="M508.139 450.9V350.249H536.498V361.639C547.19 348.157 560.44 346.995 566.484 346.995C587.637 346.995 595.772 360.244 598.329 365.358C603.211 357.455 613.206 346.995 630.64 346.995C646.214 346.995 653.885 354.201 657.837 359.315C664.345 367.915 664.81 376.516 664.81 387.673V450.9H636.451V396.042C636.451 384.187 633.894 378.84 631.802 376.283C628.083 371.634 622.969 371.169 620.18 371.169C612.509 371.169 607.627 374.656 604.606 380.003C600.886 386.046 600.654 394.182 600.654 399.528V450.9H572.295V396.042C572.295 384.187 569.738 378.84 567.646 376.283C563.927 371.634 558.813 371.169 556.023 371.169C548.353 371.169 543.471 374.656 540.449 380.003C536.73 386.046 536.498 394.182 536.498 399.528V450.9H508.139Z" fill="white"/>
<path d="M375.893 450.9L417.184 403.92C419.712 400.971 436.144 382.221 441.201 374.637C444.993 368.949 449.417 360.311 449.417 352.095C449.417 339.455 440.358 330.817 428.56 330.817C414.235 330.817 406.651 342.194 406.229 354.202H377.999C379.263 325.551 399.488 307.222 427.296 307.222C459.95 307.222 476.804 329.553 476.804 351.884C476.804 373.584 462.268 389.173 451.313 400.971L427.086 427.305H477.857V450.9H375.893Z" fill="#28E6C5"/>
<path d="M360.017 357.687L346.07 374.191C339.329 367.915 332.588 367.45 329.566 367.45C322.825 367.45 318.641 370.705 318.641 375.586C318.641 378.143 319.803 382.095 327.706 384.652L334.448 386.744C342.351 389.301 354.206 393.252 360.017 401.156C363.039 405.34 365.131 411.383 365.131 417.892C365.131 426.958 362.109 436.023 353.973 443.462C345.838 450.9 336.075 454.154 323.755 454.154C302.834 454.154 290.979 444.159 284.703 437.418L299.58 420.217C305.159 426.725 313.527 431.839 321.895 431.839C329.799 431.839 335.842 427.887 335.842 420.914C335.842 414.638 330.728 412.081 327.009 410.686L320.5 408.362C313.295 405.805 304.926 402.55 298.883 396.274C294.234 391.393 291.212 385.117 291.212 376.981C291.212 367.218 295.861 359.082 301.672 354.201C309.575 347.924 319.803 346.995 327.939 346.995C335.377 346.995 347.232 347.924 360.017 357.687Z" fill="white"/>
<path d="M270.579 357.687L256.632 374.191C249.891 367.915 243.149 367.45 240.128 367.45C233.387 367.45 229.202 370.705 229.202 375.586C229.202 378.143 230.365 382.095 238.268 384.652L245.009 386.744C252.912 389.301 264.767 393.252 270.579 401.156C273.6 405.34 275.693 411.383 275.693 417.892C275.693 426.958 272.671 436.023 264.535 443.462C256.399 450.9 246.636 454.154 234.316 454.154C213.396 454.154 201.541 444.159 195.265 437.418L210.141 420.217C215.72 426.725 224.088 431.839 232.457 431.839C240.36 431.839 246.404 427.887 246.404 420.914C246.404 414.638 241.29 412.081 237.571 410.686L231.062 408.362C223.856 405.805 215.488 402.55 209.444 396.274C204.795 391.393 201.773 385.117 201.773 376.981C201.773 367.218 206.422 359.082 212.234 354.201C220.137 347.924 230.365 346.995 238.5 346.995C245.939 346.995 257.794 347.924 270.579 357.687Z" fill="white"/>
<path d="M127.186 346.995C146.247 346.995 159.264 353.271 167.865 361.174C177.86 370.24 184.834 384.187 184.834 400.691C184.834 416.962 177.86 430.909 167.865 439.975C159.264 447.878 146.247 454.154 127.186 454.154C108.125 454.154 95.1076 447.878 86.507 439.975C76.5116 430.909 69.5381 416.962 69.5381 400.691C69.5381 384.187 76.5116 370.24 86.507 361.174C95.1076 353.271 108.125 346.995 127.186 346.995ZM127.186 429.05C143.69 429.05 155.545 416.032 155.545 400.691C155.545 384.884 143.457 372.099 127.186 372.099C110.914 372.099 98.8268 384.884 98.8268 400.691C98.8268 416.032 110.682 429.05 127.186 429.05Z" fill="white"/>
<path d="M59.8832 374.424H40.3574V450.9H11.9984V374.424H0.84082V350.249H11.9984V315.846H40.3574V350.249H59.8832V374.424Z" fill="white"/>
<defs>
<linearGradient id="paint0_linear_59_1131" x1="662.785" y1="20.9354" x2="662.785" y2="262.222" gradientUnits="userSpaceOnUse">
<stop stop-color="#016DFF"/>
<stop offset="1" stop-color="#2AEFC1"/>
</linearGradient>
<linearGradient id="paint1_linear_59_1131" x1="662.785" y1="20.9354" x2="662.785" y2="262.222" gradientUnits="userSpaceOnUse">
<stop stop-color="#016DFF"/>
<stop offset="1" stop-color="#2AEFC1"/>
</linearGradient>
<linearGradient id="paint2_linear_59_1131" x1="662.785" y1="20.9354" x2="662.785" y2="262.222" gradientUnits="userSpaceOnUse">
<stop stop-color="#016DFF"/>
<stop offset="1" stop-color="#2AEFC1"/>
</linearGradient>
<linearGradient id="paint3_linear_59_1131" x1="662.785" y1="20.9354" x2="662.785" y2="262.222" gradientUnits="userSpaceOnUse">
<stop stop-color="#016DFF"/>
<stop offset="1" stop-color="#2AEFC1"/>
</linearGradient>
<linearGradient id="paint4_linear_59_1131" x1="662.785" y1="20.9354" x2="662.785" y2="262.222" gradientUnits="userSpaceOnUse">
<stop stop-color="#016DFF"/>
<stop offset="1" stop-color="#2AEFC1"/>
</linearGradient>
<linearGradient id="paint5_linear_59_1131" x1="662.785" y1="20.9354" x2="662.785" y2="262.222" gradientUnits="userSpaceOnUse">
<stop stop-color="#016DFF"/>
<stop offset="1" stop-color="#2AEFC1"/>
</linearGradient>
</defs>
</svg>
