<svg width="195" height="195" viewBox="0 0 195 195" fill="none" xmlns="http://www.w3.org/2000/svg">
<path d="M94.1609 194.381C83.6604 194.381 73.9985 186.741 71.1781 176.23C67.6525 163.047 75.1038 149.35 87.7768 145.688C89.511 145.193 91.3023 144.896 93.0937 144.797C121.184 143.431 144.148 121.064 147.254 92.0457C147.597 88.8192 148.588 85.672 150.208 82.7226C153.352 76.9428 158.269 72.9444 164.424 71.1629C166.502 70.5691 168.636 70.2523 170.77 70.2523C181.156 70.2523 190.704 77.7939 193.486 88.1858C195.201 94.5793 194.439 101.012 191.295 106.812C188.15 112.592 183.234 116.59 177.078 118.372C175.382 118.867 173.648 119.164 171.914 119.243C143.862 120.708 120.993 143.134 117.944 172.133C117.067 180.506 111.369 190.343 100.602 193.451C98.5059 194.065 96.3334 194.362 94.1799 194.362L94.1609 194.381Z" fill="white"/>
<path d="M25.0686 194.381C14.5681 194.381 4.9062 186.741 2.08575 176.23C-1.43981 163.047 6.01151 149.35 18.6845 145.688C20.4187 145.193 22.21 144.896 24.0014 144.797C52.0915 143.431 75.0553 121.064 78.1616 92.0457C78.5046 88.8192 79.4956 85.672 81.1154 82.7226C84.2598 76.9428 89.1766 72.9444 95.332 71.1629C97.4092 70.5691 99.5436 70.2523 101.678 70.2523C112.064 70.2523 121.612 77.7939 124.394 88.1858C126.109 94.5793 125.347 101.012 122.202 106.812C119.058 112.592 114.141 116.59 107.986 118.372C106.29 118.867 104.556 119.164 102.821 119.243C74.7694 120.708 51.9009 143.134 48.8518 172.133C47.9752 180.506 42.2771 190.343 31.5099 193.451C29.4136 194.065 27.2411 194.362 25.0876 194.362L25.0686 194.381Z" fill="white"/>
<path d="M24.2384 124.51C13.738 124.51 4.07604 116.87 1.2556 106.359C-2.26996 93.1762 5.18135 79.4787 17.8543 75.8168C19.5885 75.3219 21.3799 75.025 23.1712 74.926C51.2613 73.5602 74.2251 51.1929 77.3314 22.1747C77.6744 18.9482 78.6654 15.801 80.2853 12.8517C83.4297 7.07176 88.3464 3.07335 94.5018 1.29188C96.56 0.67826 98.6944 0.381348 100.829 0.381348C111.196 0.381348 120.762 7.92291 123.545 18.3148C125.26 24.7083 124.498 31.1414 121.353 36.9411C118.209 42.721 113.292 46.7194 107.137 48.5009C105.441 48.9957 103.706 49.2926 101.972 49.3718C73.9202 50.8366 51.0517 73.2633 48.0026 102.262C47.126 110.635 41.4279 120.472 30.6607 123.58C28.5644 124.194 26.3919 124.491 24.2384 124.491V124.51Z" fill="white"/>
<path d="M191.034 168.92C191.034 181.492 181.221 191.685 169.117 191.685C157.012 191.685 147.199 181.492 147.199 168.92C147.199 156.347 157.012 146.155 169.117 146.155C181.221 146.155 191.034 156.347 191.034 168.92Z" fill="white"/>
<path d="M191.034 26.4671C191.034 39.0399 181.221 49.2322 169.117 49.2322C157.012 49.2322 147.199 39.0399 147.199 26.4671C147.199 13.8944 157.012 3.7021 169.117 3.7021C181.221 3.7021 191.034 13.8944 191.034 26.4671Z" fill="white"/>
<path d="M50.2205 26.4671C50.2205 39.0399 40.4078 49.2322 28.3032 49.2322C16.1986 49.2322 6.38583 39.0399 6.38583 26.4671C6.38583 13.8944 16.1986 3.7021 28.3032 3.7021C40.4078 3.7021 50.2205 13.8944 50.2205 26.4671Z" fill="white"/>
</svg>
