<svg width="1325" height="454" viewBox="0 0 1325 454" fill="none" xmlns="http://www.w3.org/2000/svg">
<path d="M658.445 261.452C644.294 261.452 631.272 251.155 627.471 236.99C622.72 219.223 632.762 200.763 649.841 195.828C652.178 195.161 654.593 194.761 657.007 194.628C694.864 192.787 725.812 162.643 729.998 123.535C730.46 119.187 731.796 114.945 733.979 110.971C738.217 103.181 744.843 97.7926 753.139 95.3917C755.938 94.5914 758.815 94.1646 761.691 94.1646C775.688 94.1646 788.556 104.328 792.305 118.333C794.617 126.95 793.589 135.62 789.352 143.436C785.114 151.225 778.488 156.614 770.192 159.015C767.906 159.682 765.569 160.082 763.232 160.189C725.427 162.163 694.607 192.387 690.498 231.468C689.316 242.752 681.637 256.01 667.126 260.198C664.301 261.025 661.373 261.426 658.471 261.426L658.445 261.452Z" fill="url(#paint0_linear_70_2)"/>
<path d="M565.33 261.452C551.179 261.452 538.157 251.155 534.356 236.99C529.605 219.223 539.647 200.763 556.726 195.828C559.063 195.161 561.478 194.761 563.892 194.628C601.749 192.787 632.697 162.643 636.883 123.535C637.345 119.187 638.681 114.945 640.864 110.971C645.102 103.181 651.728 97.7926 660.023 95.3917C662.823 94.5914 665.699 94.1646 668.576 94.1646C682.573 94.1646 695.44 104.328 699.19 118.333C701.502 126.95 700.474 135.62 696.237 143.436C691.999 151.225 685.373 156.614 677.077 159.015C674.791 159.682 672.454 160.082 670.117 160.189C632.311 162.163 601.492 192.387 597.382 231.468C596.201 242.752 588.522 256.01 574.011 260.198C571.186 261.025 568.258 261.426 565.356 261.426L565.33 261.452Z" fill="url(#paint1_linear_70_2)"/>
<path d="M564.211 167.288C550.06 167.288 537.039 156.991 533.237 142.825C528.486 125.059 538.528 106.599 555.607 101.664C557.945 100.997 560.359 100.597 562.773 100.463C600.63 98.6226 631.578 68.4783 635.764 29.3707C636.227 25.0225 637.562 20.7809 639.745 16.8061C643.983 9.01662 650.609 3.62799 658.905 1.22711C661.678 0.400146 664.555 0 667.431 0C681.403 0 694.296 10.1637 698.046 24.1688C700.357 32.7853 699.33 41.4551 695.092 49.2713C690.854 57.0608 684.228 62.4494 675.933 64.8503C673.647 65.5172 671.31 65.9174 668.972 66.0241C631.167 67.9981 600.347 98.2225 596.238 137.303C595.057 148.587 587.377 161.846 572.866 166.034C570.041 166.861 567.113 167.261 564.211 167.261V167.288Z" fill="url(#paint2_linear_70_2)"/>
<path d="M789 227.138C789 244.082 775.776 257.818 759.462 257.818C743.149 257.818 729.925 244.082 729.925 227.138C729.925 210.193 743.149 196.457 759.462 196.457C775.776 196.457 789 210.193 789 227.138Z" fill="url(#paint3_linear_70_2)"/>
<path d="M789 35.1556C789 52.0999 775.776 65.8359 759.462 65.8359C743.149 65.8359 729.925 52.0999 729.925 35.1556C729.925 18.2114 743.149 4.47535 759.462 4.47535C775.776 4.47535 789 18.2114 789 35.1556Z" fill="url(#paint4_linear_70_2)"/>
<path d="M599.227 35.1556C599.227 52.0999 586.003 65.8359 569.689 65.8359C553.376 65.8359 540.151 52.0999 540.151 35.1556C540.151 18.2114 553.376 4.47535 569.689 4.47535C586.003 4.47535 599.227 18.2114 599.227 35.1556Z" fill="url(#paint5_linear_70_2)"/>
<path d="M1298 417.819L1324.03 422.003C1321.01 429.442 1309.62 453.384 1274.52 453.384C1258.25 453.384 1245.93 448.735 1235.93 439.205C1224.77 428.745 1220.12 415.727 1220.12 399.921C1220.12 379.93 1228.26 367.61 1235.47 360.404C1247.32 348.782 1261.27 346.225 1273.36 346.225C1293.81 346.225 1305.67 354.36 1312.64 362.729C1323.33 375.513 1324.73 391.32 1324.73 402.245V404.57H1249.41C1249.41 410.613 1251.04 417.122 1254.3 421.539C1257.32 425.723 1263.59 431.069 1274.52 431.069C1285.21 431.069 1293.35 425.955 1298 417.819ZM1250.34 386.439H1298C1295.67 372.724 1284.51 366.215 1274.05 366.215C1263.59 366.215 1252.67 372.956 1250.34 386.439Z" fill="#011667"/>
<path d="M1101.07 450.13V349.479H1129.43V362.496C1134.77 355.058 1144.3 346.225 1160.58 346.225C1169.41 346.225 1182.43 348.782 1190.33 358.544C1197.3 367.145 1198.23 377.141 1198.23 386.903V450.13H1169.87V395.272C1169.87 389.693 1169.64 380.86 1164.53 375.513C1160.11 370.864 1154.07 370.399 1151.28 370.399C1143.84 370.399 1138.03 372.956 1133.84 379.233C1129.66 385.741 1129.43 392.947 1129.43 398.758V450.13H1101.07Z" fill="#011667"/>
<path fill-rule="evenodd" clip-rule="evenodd" d="M1073.94 350.259C1070.3 353.785 1065.33 355.955 1059.86 355.955C1054.39 355.955 1049.42 353.785 1045.78 350.259L1045.78 450.128H1073.94L1073.94 350.259Z" fill="#011667"/>
<ellipse cx="1059.86" cy="326.703" rx="20.2512" ry="20.2512" fill="#016DFF"/>
<path d="M921.51 450.13V308.833H949.869V362.496C955.215 355.058 964.746 346.225 981.017 346.225C989.85 346.225 1002.87 348.782 1010.77 358.544C1017.74 367.145 1018.67 377.14 1018.67 386.903V450.13H990.315V395.272C990.315 389.693 990.083 380.86 984.969 375.513C980.552 370.864 974.509 370.399 971.719 370.399C964.281 370.399 958.469 372.956 954.285 379.233C950.101 385.741 949.869 392.947 949.869 398.758V450.13H921.51Z" fill="#011667"/>
<path d="M900.131 352.268V380.162C894.087 374.584 886.649 371.329 876.886 371.329C858.058 371.329 848.527 385.044 848.527 399.688C848.527 416.192 860.847 428.28 877.816 428.28C884.092 428.28 892.46 426.42 900.131 419.447V447.108C894.552 449.898 885.719 453.384 874.097 453.384C858.29 453.384 844.343 447.341 835.277 438.74C827.606 431.534 819.238 418.982 819.238 400.153C819.238 382.487 826.444 368.307 836.672 359.242C848.992 348.317 863.171 346.225 872.934 346.225C883.395 346.225 891.995 348.317 900.131 352.268Z" fill="#011667"/>
<path d="M768.956 362.496V349.479H797.315V450.13H768.956V437.113C758.729 451.757 745.246 453.384 738.04 453.384C707.125 453.384 686.669 429.209 686.669 399.688C686.669 369.935 706.892 346.225 736.646 346.225C744.317 346.225 759.426 347.619 768.956 362.496ZM743.852 371.329C727.58 371.329 715.958 383.649 715.958 399.688C715.958 415.727 727.58 428.28 743.852 428.28C760.123 428.28 771.746 415.727 771.746 399.688C771.746 383.649 760.123 371.329 743.852 371.329Z" fill="#011667"/>
<path d="M508.139 450.13V349.479H536.498V360.869C547.19 347.387 560.44 346.225 566.484 346.225C587.637 346.225 595.772 359.474 598.329 364.588C603.211 356.685 613.206 346.225 630.64 346.225C646.214 346.225 653.885 353.431 657.837 358.544C664.345 367.145 664.81 375.746 664.81 386.903V450.13H636.451V395.272C636.451 383.417 633.894 378.07 631.802 375.513C628.083 370.864 622.969 370.399 620.18 370.399C612.509 370.399 607.627 373.886 604.606 379.233C600.886 385.276 600.654 393.412 600.654 398.758V450.13H572.295V395.272C572.295 383.417 569.738 378.07 567.646 375.513C563.927 370.864 558.813 370.399 556.023 370.399C548.353 370.399 543.471 373.886 540.449 379.233C536.73 385.276 536.498 393.412 536.498 398.758V450.13H508.139Z" fill="#011667"/>
<path d="M375.893 450.13L417.184 403.15C419.712 400.201 436.144 381.451 441.201 373.867C444.993 368.179 449.417 359.541 449.417 351.325C449.417 338.685 440.358 330.047 428.56 330.047C414.235 330.047 406.651 341.424 406.229 353.432H377.999C379.263 324.781 399.488 306.452 427.296 306.452C459.95 306.452 476.804 328.783 476.804 351.114C476.804 372.814 462.268 388.403 451.313 400.201L427.086 426.535H477.857V450.13H375.893Z" fill="#016DFF"/>
<path d="M360.017 356.917L346.07 373.421C339.329 367.145 332.588 366.68 329.566 366.68C322.825 366.68 318.641 369.935 318.641 374.816C318.641 377.373 319.803 381.325 327.706 383.882L334.448 385.974C342.351 388.531 354.206 392.482 360.017 400.386C363.039 404.57 365.131 410.613 365.131 417.122C365.131 426.188 362.109 435.253 353.973 442.692C345.838 450.13 336.075 453.384 323.755 453.384C302.834 453.384 290.979 443.389 284.703 436.648L299.58 419.447C305.159 425.955 313.527 431.069 321.895 431.069C329.799 431.069 335.842 427.117 335.842 420.144C335.842 413.868 330.728 411.311 327.009 409.916L320.5 407.592C313.295 405.035 304.926 401.78 298.883 395.504C294.234 390.623 291.212 384.346 291.212 376.211C291.212 366.448 295.861 358.312 301.672 353.431C309.575 347.154 319.803 346.225 327.939 346.225C335.377 346.225 347.232 347.154 360.017 356.917Z" fill="#011667"/>
<path d="M270.579 356.917L256.632 373.421C249.891 367.145 243.149 366.68 240.128 366.68C233.387 366.68 229.202 369.935 229.202 374.816C229.202 377.373 230.365 381.325 238.268 383.882L245.009 385.974C252.912 388.531 264.767 392.482 270.579 400.386C273.6 404.57 275.693 410.613 275.693 417.122C275.693 426.188 272.671 435.253 264.535 442.692C256.399 450.13 246.636 453.384 234.316 453.384C213.396 453.384 201.541 443.389 195.265 436.648L210.141 419.447C215.72 425.955 224.089 431.069 232.457 431.069C240.36 431.069 246.404 427.117 246.404 420.144C246.404 413.868 241.29 411.311 237.571 409.916L231.062 407.592C223.856 405.035 215.488 401.78 209.444 395.504C204.795 390.623 201.773 384.346 201.773 376.211C201.773 366.448 206.422 358.312 212.234 353.431C220.137 347.154 230.365 346.225 238.5 346.225C245.939 346.225 257.794 347.154 270.579 356.917Z" fill="#011667"/>
<path d="M127.186 346.225C146.247 346.225 159.264 352.501 167.865 360.404C177.86 369.47 184.834 383.417 184.834 399.921C184.834 416.192 177.86 430.139 167.865 439.205C159.264 447.108 146.247 453.384 127.186 453.384C108.125 453.384 95.1076 447.108 86.507 439.205C76.5116 430.139 69.5381 416.192 69.5381 399.921C69.5381 383.417 76.5116 369.47 86.507 360.404C95.1076 352.501 108.125 346.225 127.186 346.225ZM127.186 428.28C143.69 428.28 155.545 415.262 155.545 399.921C155.545 384.114 143.457 371.329 127.186 371.329C110.914 371.329 98.8268 384.114 98.8268 399.921C98.8268 415.262 110.682 428.28 127.186 428.28Z" fill="#011667"/>
<path d="M59.8832 373.654H40.3574V450.13H11.9984V373.654H0.84082V349.479H11.9984V315.076H40.3574V349.479H59.8832V373.654Z" fill="#011667"/>
<defs>
<linearGradient id="paint0_linear_70_2" x1="662.785" y1="20.1654" x2="662.785" y2="261.452" gradientUnits="userSpaceOnUse">
<stop stop-color="#016DFF"/>
<stop offset="1" stop-color="#2AEFC1"/>
</linearGradient>
<linearGradient id="paint1_linear_70_2" x1="662.785" y1="20.1654" x2="662.785" y2="261.452" gradientUnits="userSpaceOnUse">
<stop stop-color="#016DFF"/>
<stop offset="1" stop-color="#2AEFC1"/>
</linearGradient>
<linearGradient id="paint2_linear_70_2" x1="662.785" y1="20.1654" x2="662.785" y2="261.452" gradientUnits="userSpaceOnUse">
<stop stop-color="#016DFF"/>
<stop offset="1" stop-color="#2AEFC1"/>
</linearGradient>
<linearGradient id="paint3_linear_70_2" x1="662.785" y1="20.1654" x2="662.785" y2="261.452" gradientUnits="userSpaceOnUse">
<stop stop-color="#016DFF"/>
<stop offset="1" stop-color="#2AEFC1"/>
</linearGradient>
<linearGradient id="paint4_linear_70_2" x1="662.785" y1="20.1654" x2="662.785" y2="261.452" gradientUnits="userSpaceOnUse">
<stop stop-color="#016DFF"/>
<stop offset="1" stop-color="#2AEFC1"/>
</linearGradient>
<linearGradient id="paint5_linear_70_2" x1="662.785" y1="20.1654" x2="662.785" y2="261.452" gradientUnits="userSpaceOnUse">
<stop stop-color="#016DFF"/>
<stop offset="1" stop-color="#2AEFC1"/>
</linearGradient>
</defs>
</svg>
