<svg width="195" height="195" viewBox="0 0 195 195" fill="none" xmlns="http://www.w3.org/2000/svg">
<path d="M94.2859 194.381C83.7854 194.381 74.1235 186.741 71.3031 176.23C67.7775 163.047 75.2288 149.35 87.9018 145.688C89.636 145.193 91.4273 144.896 93.2187 144.797C121.309 143.431 144.273 121.064 147.379 92.0457C147.722 88.8192 148.713 85.672 150.333 82.7226C153.477 76.9428 158.394 72.9444 164.549 71.1629C166.627 70.5691 168.761 70.2523 170.895 70.2523C181.281 70.2523 190.829 77.7939 193.611 88.1858C195.326 94.5793 194.564 101.012 191.42 106.812C188.275 112.592 183.359 116.59 177.203 118.372C175.507 118.867 173.773 119.164 172.039 119.243C143.987 120.708 121.118 143.134 118.069 172.133C117.192 180.506 111.494 190.343 100.727 193.451C98.6309 194.065 96.4584 194.362 94.3049 194.362L94.2859 194.381Z" fill="url(#paint0_linear_59_1046)"/>
<path d="M25.1936 194.381C14.6931 194.381 5.0312 186.741 2.21075 176.23C-1.31481 163.047 6.13651 149.35 18.8095 145.688C20.5437 145.193 22.335 144.896 24.1264 144.797C52.2165 143.431 75.1803 121.064 78.2866 92.0457C78.6296 88.8192 79.6206 85.672 81.2404 82.7226C84.3848 76.9428 89.3016 72.9444 95.457 71.1629C97.5342 70.5691 99.6686 70.2523 101.803 70.2523C112.189 70.2523 121.737 77.7939 124.519 88.1858C126.234 94.5793 125.472 101.012 122.327 106.812C119.183 112.592 114.266 116.59 108.111 118.372C106.415 118.867 104.681 119.164 102.946 119.243C74.8944 120.708 52.0259 143.134 48.9768 172.133C48.1002 180.506 42.4021 190.343 31.6349 193.451C29.5386 194.065 27.3661 194.362 25.2126 194.362L25.1936 194.381Z" fill="url(#paint1_linear_59_1046)"/>
<path d="M24.3634 124.51C13.863 124.51 4.20104 116.87 1.3806 106.359C-2.14496 93.1762 5.30635 79.4787 17.9793 75.8168C19.7135 75.3219 21.5049 75.025 23.2962 74.926C51.3863 73.5602 74.3501 51.1929 77.4564 22.1747C77.7994 18.9482 78.7904 15.801 80.4103 12.8517C83.5547 7.07176 88.4714 3.07335 94.6268 1.29188C96.685 0.67826 98.8194 0.381348 100.954 0.381348C111.321 0.381348 120.887 7.92291 123.67 18.3148C125.385 24.7083 124.623 31.1414 121.478 36.9411C118.334 42.721 113.417 46.7194 107.262 48.5009C105.566 48.9957 103.831 49.2926 102.097 49.3718C74.0452 50.8366 51.1767 73.2633 48.1276 102.262C47.251 110.635 41.5529 120.472 30.7857 123.58C28.6894 124.194 26.5169 124.491 24.3634 124.491V124.51Z" fill="url(#paint2_linear_59_1046)"/>
<path d="M191.159 168.92C191.159 181.492 181.346 191.685 169.242 191.685C157.137 191.685 147.324 181.492 147.324 168.92C147.324 156.347 157.137 146.155 169.242 146.155C181.346 146.155 191.159 156.347 191.159 168.92Z" fill="url(#paint3_linear_59_1046)"/>
<path d="M191.159 26.4671C191.159 39.0399 181.346 49.2322 169.242 49.2322C157.137 49.2322 147.324 39.0399 147.324 26.4671C147.324 13.8944 157.137 3.7021 169.242 3.7021C181.346 3.7021 191.159 13.8944 191.159 26.4671Z" fill="url(#paint4_linear_59_1046)"/>
<path d="M50.3455 26.4671C50.3455 39.0399 40.5328 49.2322 28.4282 49.2322C16.3236 49.2322 6.51083 39.0399 6.51083 26.4671C6.51083 13.8944 16.3236 3.7021 28.4282 3.7021C40.5328 3.7021 50.3455 13.8944 50.3455 26.4671Z" fill="url(#paint5_linear_59_1046)"/>
<defs>
<linearGradient id="paint0_linear_59_1046" x1="97.5059" y1="15.3442" x2="97.5059" y2="194.381" gradientUnits="userSpaceOnUse">
<stop stop-color="#016DFF"/>
<stop offset="1" stop-color="#2AEFC1"/>
</linearGradient>
<linearGradient id="paint1_linear_59_1046" x1="97.5059" y1="15.3442" x2="97.5059" y2="194.381" gradientUnits="userSpaceOnUse">
<stop stop-color="#016DFF"/>
<stop offset="1" stop-color="#2AEFC1"/>
</linearGradient>
<linearGradient id="paint2_linear_59_1046" x1="97.5059" y1="15.3442" x2="97.5059" y2="194.381" gradientUnits="userSpaceOnUse">
<stop stop-color="#016DFF"/>
<stop offset="1" stop-color="#2AEFC1"/>
</linearGradient>
<linearGradient id="paint3_linear_59_1046" x1="97.5059" y1="15.3442" x2="97.5059" y2="194.381" gradientUnits="userSpaceOnUse">
<stop stop-color="#016DFF"/>
<stop offset="1" stop-color="#2AEFC1"/>
</linearGradient>
<linearGradient id="paint4_linear_59_1046" x1="97.5059" y1="15.3442" x2="97.5059" y2="194.381" gradientUnits="userSpaceOnUse">
<stop stop-color="#016DFF"/>
<stop offset="1" stop-color="#2AEFC1"/>
</linearGradient>
<linearGradient id="paint5_linear_59_1046" x1="97.5059" y1="15.3442" x2="97.5059" y2="194.381" gradientUnits="userSpaceOnUse">
<stop stop-color="#016DFF"/>
<stop offset="1" stop-color="#2AEFC1"/>
</linearGradient>
</defs>
</svg>
