<svg width="1238" height="174" viewBox="0 0 1238 174" fill="none" xmlns="http://www.w3.org/2000/svg">
<path d="M1206.77 68.491C1213.15 68.491 1218.59 69.7903 1223.08 72.3888C1227.62 74.9434 1231.1 78.5109 1233.52 83.0915C1235.94 87.628 1237.33 92.8692 1237.68 98.8151C1237.68 100.313 1237.35 101.37 1236.69 101.986C1236.08 102.603 1235.02 102.911 1233.52 102.911H1185.69C1186 109.474 1187.94 114.451 1191.5 117.842C1195.12 121.189 1200.2 122.863 1206.77 122.863C1210.82 122.863 1214.83 122.357 1218.79 121.344C1222.75 120.286 1226.23 118.899 1229.23 117.181C1229.98 116.785 1230.66 116.587 1231.28 116.587C1232.82 116.587 1234.07 117.754 1235.04 120.088C1235.44 121.013 1235.64 121.85 1235.64 122.599C1235.64 124.361 1234.67 125.726 1232.73 126.695C1229.34 128.413 1225.33 129.8 1220.71 130.857C1216.08 131.914 1211.43 132.443 1206.77 132.443C1200.11 132.443 1194.43 131.165 1189.72 128.611C1185.01 126.056 1181.42 122.379 1178.95 117.578C1176.49 112.777 1175.25 107.073 1175.25 100.467C1175.25 94.1685 1176.6 88.597 1179.28 83.7521C1181.97 78.9073 1185.69 75.1636 1190.45 72.521C1195.2 69.8343 1200.64 68.491 1206.77 68.491ZM1206.77 78.0705C1201.35 78.0705 1196.86 79.4579 1193.29 82.2326C1189.76 84.9633 1187.45 88.7731 1186.35 93.662H1226.72C1225.79 88.597 1223.66 84.7431 1220.31 82.1005C1217.01 79.4138 1212.49 78.0705 1206.77 78.0705Z" fill="#686565"/>
<path d="M1132.51 68.491C1136.52 68.491 1139.99 69.3718 1142.95 71.1336C1145.9 72.8513 1148.16 75.3398 1149.75 78.599C1151.34 81.8583 1152.13 85.668 1152.13 90.0284V122.004H1157.55C1159.04 122.004 1160.1 122.357 1160.72 123.061C1161.38 123.722 1161.71 124.867 1161.71 126.497C1161.71 128.126 1161.38 129.293 1160.72 129.998C1160.1 130.659 1159.04 130.989 1157.55 130.989H1136.14C1134.64 130.989 1133.56 130.659 1132.9 129.998C1132.29 129.293 1131.98 128.126 1131.98 126.497C1131.98 124.867 1132.29 123.722 1132.9 123.061C1133.56 122.357 1134.64 122.004 1136.14 122.004H1142.22V91.0194C1142.22 87.0995 1141.32 83.9944 1139.51 81.7041C1137.7 79.4138 1135.04 78.2687 1131.52 78.2687C1127.77 78.2687 1124.27 79.3478 1121.01 81.5059C1117.8 83.6641 1115.22 86.637 1113.28 90.4248C1111.34 94.2125 1110.38 98.4407 1110.38 103.109V122.004H1116.45C1117.95 122.004 1119.01 122.357 1119.62 123.061C1120.29 123.722 1120.62 124.867 1120.62 126.497C1120.62 128.126 1120.29 129.293 1119.62 129.998C1119.01 130.659 1117.95 130.989 1116.45 130.989H1095.05C1093.55 130.989 1092.47 130.659 1091.81 129.998C1091.19 129.293 1090.89 128.126 1090.89 126.497C1090.89 124.867 1091.19 123.722 1091.81 123.061C1092.47 122.357 1093.55 122.004 1095.05 122.004H1100.47V78.9293H1093.73C1092.23 78.9293 1091.15 78.599 1090.49 77.9384C1089.87 77.2337 1089.56 76.0665 1089.56 74.4369C1089.56 72.8073 1089.87 71.6621 1090.49 71.0015C1091.15 70.2968 1092.23 69.9444 1093.73 69.9444H1105.55C1107.05 69.9444 1108.11 70.2968 1108.72 71.0015C1109.38 71.6621 1109.71 72.8073 1109.71 74.4369V82.3648C1112.62 77.8723 1116.01 74.4369 1119.89 72.0585C1123.81 69.6801 1128.01 68.491 1132.51 68.491Z" fill="#686565"/>
<path d="M1046.29 69.9445C1047.79 69.9445 1048.85 70.2968 1049.46 71.0015C1050.12 71.6622 1050.45 72.8073 1050.45 74.437V122.004H1071.66C1073.16 122.004 1074.22 122.357 1074.83 123.061C1075.49 123.722 1075.82 124.867 1075.82 126.497C1075.82 128.126 1075.49 129.293 1074.83 129.998C1074.22 130.659 1073.16 130.989 1071.66 130.989H1019.87C1018.37 130.989 1017.29 130.659 1016.63 129.998C1016.01 129.293 1015.7 128.126 1015.7 126.497C1015.7 124.867 1016.01 123.722 1016.63 123.061C1017.29 122.357 1018.37 122.004 1019.87 122.004H1040.54V78.9294H1023.83C1022.33 78.9294 1021.25 78.5991 1020.59 77.9384C1019.98 77.2337 1019.67 76.0666 1019.67 74.437C1019.67 72.8073 1019.98 71.6622 1020.59 71.0015C1021.25 70.2968 1022.33 69.9445 1023.83 69.9445H1046.29ZM1044.18 40.9417C1046.6 40.9417 1048.25 41.272 1049.13 41.9326C1050.01 42.5492 1050.45 43.6503 1050.45 45.2359V53.8245C1050.45 55.41 1050.01 56.5332 1049.13 57.1938C1048.25 57.8104 1046.6 58.1187 1044.18 58.1187C1041.76 58.1187 1040.1 57.8104 1039.22 57.1938C1038.34 56.5332 1037.9 55.41 1037.9 53.8245V45.2359C1037.9 43.6503 1038.34 42.5492 1039.22 41.9326C1040.1 41.272 1041.76 40.9417 1044.18 40.9417Z" fill="#686565"/>
<path d="M943.295 44.311C944.792 44.311 945.849 44.6634 946.466 45.3681C947.126 46.0287 947.457 47.1739 947.457 48.8035V81.7042C950.32 77.432 953.623 74.1727 957.367 71.9265C961.154 69.6362 965.228 68.4911 969.589 68.4911C973.597 68.4911 977.076 69.372 980.027 71.1337C982.978 72.8514 985.246 75.3399 986.832 78.5991C988.417 81.8584 989.21 85.6682 989.21 90.0285V122.004H994.628C996.125 122.004 997.182 122.357 997.799 123.061C998.459 123.722 998.79 124.867 998.79 126.497C998.79 128.126 998.459 129.294 997.799 129.998C997.182 130.659 996.125 130.989 994.628 130.989H973.222C971.725 130.989 970.646 130.659 969.985 129.998C969.368 129.294 969.06 128.126 969.06 126.497C969.06 124.867 969.368 123.722 969.985 123.061C970.646 122.357 971.725 122.004 973.222 122.004H979.3V91.0195C979.3 87.0996 978.397 83.9945 976.592 81.7042C974.786 79.4139 972.121 78.2688 968.598 78.2688C964.854 78.2688 961.353 79.3479 958.093 81.506C954.878 83.6642 952.302 86.6371 950.364 90.4249C948.426 94.2126 947.457 98.4409 947.457 103.109V122.004H953.535C955.032 122.004 956.089 122.357 956.706 123.061C957.367 123.722 957.697 124.867 957.697 126.497C957.697 128.126 957.367 129.294 956.706 129.998C956.089 130.659 955.032 130.989 953.535 130.989H932.129C930.632 130.989 929.553 130.659 928.892 129.998C928.276 129.294 927.967 128.126 927.967 126.497C927.967 124.867 928.276 123.722 928.892 123.061C929.553 122.357 930.632 122.004 932.129 122.004H937.547V53.296H931.469C929.971 53.296 928.892 52.9656 928.232 52.305C927.615 51.6003 927.307 50.4331 927.307 48.8035C927.307 47.1739 927.615 46.0287 928.232 45.3681C928.892 44.6634 929.971 44.311 931.469 44.311H943.295Z" fill="#686565"/>
<path d="M905.44 68.491C907.246 68.491 908.523 68.8213 909.272 69.482C910.021 70.1426 910.395 71.2437 910.395 72.7852V91.9443C910.395 93.4858 910.021 94.5869 909.272 95.2476C908.523 95.9082 907.246 96.2386 905.44 96.2386C903.634 96.2386 902.357 95.9082 901.608 95.2476C900.86 94.5869 900.485 93.4858 900.485 91.9443C900.485 89.2576 899.78 86.8793 898.371 84.8092C896.962 82.7391 894.848 81.1315 892.029 79.9864C889.254 78.8413 885.907 78.2687 881.987 78.2687C877.759 78.2687 873.971 79.2156 870.623 81.1095C867.276 83.0034 864.656 85.646 862.762 89.0374C860.868 92.4288 859.921 96.2386 859.921 100.467C859.921 104.739 860.802 108.571 862.563 111.962C864.369 115.31 866.88 117.93 870.095 119.824C873.354 121.718 877.098 122.665 881.326 122.665C885.378 122.665 889.298 122.048 893.086 120.815C896.918 119.538 900.397 117.71 903.524 115.332C904.449 114.627 905.308 114.274 906.101 114.274C907.378 114.274 908.567 115.177 909.668 116.983C910.329 118.084 910.659 119.141 910.659 120.154C910.659 121.696 909.955 122.973 908.545 123.986C905.022 126.629 900.86 128.699 896.059 130.196C891.258 131.694 886.347 132.443 881.326 132.443C875.028 132.443 869.456 131.055 864.612 128.28C859.811 125.506 856.089 121.696 853.446 116.851C850.804 112.006 849.482 106.545 849.482 100.467C849.482 94.3887 850.826 88.9273 853.512 84.0825C856.199 79.2377 859.943 75.4279 864.744 72.6531C869.588 69.8783 875.116 68.491 881.326 68.491C885.246 68.491 888.836 69.2177 892.095 70.6711C895.398 72.0805 898.195 74.1066 900.485 76.7492V72.7852C900.485 71.2437 900.86 70.1426 901.608 69.482C902.357 68.8213 903.634 68.491 905.44 68.491Z" fill="#686565"/>
<path d="M800.791 68.491C809.071 68.491 815.281 70.3408 819.421 74.0405C823.561 77.7402 825.631 83.2236 825.631 90.4908V116.785C825.631 120.264 827.085 122.004 829.992 122.004H832.304C833.801 122.004 834.858 122.357 835.475 123.061C836.136 123.722 836.466 124.867 836.466 126.497C836.466 128.126 836.136 129.293 835.475 129.998C834.858 130.659 833.801 130.989 832.304 130.989H828.076C825.213 130.989 822.746 130.284 820.676 128.875C818.65 127.422 817.329 125.307 816.712 122.533C813.101 125.704 809.181 128.148 804.953 129.866C800.769 131.584 796.32 132.443 791.607 132.443C787.159 132.443 783.217 131.694 779.782 130.196C776.39 128.655 773.726 126.431 771.788 123.524C769.85 120.617 768.881 117.159 768.881 113.151C768.881 106.192 771.369 101.061 776.346 97.7581C781.323 94.4107 787.754 92.7371 795.637 92.7371C802.64 92.7371 809.335 93.8602 815.721 96.1064V90.4908C815.721 86.2186 814.51 83.0915 812.088 81.1095C809.709 79.0835 805.856 78.0705 800.526 78.0705C797.223 78.0705 793.788 78.533 790.22 79.4579C786.653 80.3828 783.261 81.6601 780.046 83.2897C779.297 83.6861 778.615 83.8843 777.998 83.8843C776.544 83.8843 775.333 82.8272 774.364 80.7131C773.88 79.6561 773.638 78.7752 773.638 78.0705C773.638 76.529 774.452 75.3398 776.082 74.5029C779.782 72.565 783.746 71.0896 787.974 70.0765C792.246 69.0195 796.518 68.491 800.791 68.491ZM795.704 102.052C790.639 102.052 786.63 102.933 783.68 104.695C780.773 106.413 779.319 109.165 779.319 112.953C779.319 116.168 780.42 118.679 782.623 120.485C784.869 122.246 787.996 123.127 792.004 123.127C800.769 123.127 808.674 119.494 815.721 112.226V105.025C812.726 104.056 809.511 103.33 806.076 102.845C802.64 102.317 799.183 102.052 795.704 102.052Z" fill="#686565"/>
<path d="M748.048 122.004C749.546 122.004 750.603 122.357 751.219 123.061C751.88 123.722 752.21 124.867 752.21 126.497C752.21 128.126 751.88 129.293 751.219 129.998C750.603 130.659 749.546 130.989 748.048 130.989H738.204C736.707 130.989 735.628 130.659 734.967 129.998C734.35 129.293 734.042 128.126 734.042 126.497V87.3858C734.042 84.3467 733.536 82.0785 732.523 80.581C731.554 79.0395 729.968 78.2687 727.766 78.2687C725.696 78.2687 723.78 79.2377 722.018 81.1756C720.256 83.0695 718.847 85.7341 717.79 89.1695C716.777 92.5609 716.271 96.4368 716.271 100.797V122.004H720.036C721.534 122.004 722.591 122.357 723.207 123.061C723.868 123.722 724.198 124.867 724.198 126.497C724.198 128.126 723.868 129.293 723.207 129.998C722.591 130.659 721.534 130.989 720.036 130.989H710.523C709.025 130.989 707.946 130.659 707.286 129.998C706.669 129.293 706.361 128.126 706.361 126.497V87.3858C706.361 84.3467 705.854 82.0785 704.841 80.581C703.872 79.0395 702.287 78.2687 700.084 78.2687C698.014 78.2687 696.098 79.2377 694.337 81.1756C692.575 83.0695 691.166 85.7341 690.108 89.1695C689.095 92.5609 688.589 96.4368 688.589 100.797V122.004H692.024C693.522 122.004 694.579 122.357 695.196 123.061C695.856 123.722 696.187 124.867 696.187 126.497C696.187 128.126 695.856 129.293 695.196 129.998C694.579 130.659 693.522 130.989 692.024 130.989H673.262C671.764 130.989 670.685 130.659 670.025 129.998C669.408 129.293 669.1 128.126 669.1 126.497C669.1 124.867 669.408 123.722 670.025 123.061C670.685 122.357 671.764 122.004 673.262 122.004H678.679V78.9293H673.262C671.764 78.9293 670.685 78.599 670.025 77.9384C669.408 77.2337 669.1 76.0665 669.1 74.4369C669.1 72.8073 669.408 71.6621 670.025 71.0015C670.685 70.2968 671.764 69.9444 673.262 69.9444H683.106C684.603 69.9444 685.66 70.2968 686.277 71.0015C686.937 71.6621 687.268 72.8073 687.268 74.4369V80.9774C689.162 76.8373 691.43 73.7322 694.072 71.6621C696.715 69.548 699.578 68.491 702.661 68.491C705.656 68.491 708.277 69.504 710.523 71.53C712.769 73.556 714.289 76.529 715.081 80.4489C719.001 72.4769 724.066 68.491 730.276 68.491C732.875 68.491 735.187 69.1516 737.213 70.4729C739.283 71.7502 740.913 73.7322 742.102 76.4188C743.335 79.0615 743.952 82.3207 743.952 86.1966V122.004H748.048Z" fill="#686565"/>
<path d="M618.435 51.1157C623.544 51.1157 628.014 52.0406 631.846 53.8905C635.722 55.6963 638.717 58.3389 640.831 61.8184C642.945 65.2978 644.002 69.4379 644.002 74.2387C644.002 78.7312 642.879 82.8713 640.633 86.6591C638.43 90.4028 634.973 94.675 630.26 99.4758L608.062 122.004H636.735V113.68C636.735 112.138 637.109 111.037 637.858 110.377C638.607 109.716 639.884 109.386 641.69 109.386C643.495 109.386 644.773 109.716 645.521 110.377C646.27 111.037 646.645 112.138 646.645 113.68V126.497C646.645 128.126 646.314 129.293 645.654 129.998C645.037 130.659 643.98 130.989 642.482 130.989H596.633C595.135 130.989 594.056 130.659 593.396 129.998C592.779 129.293 592.471 128.126 592.471 126.497C592.471 124.823 592.801 123.634 593.462 122.929L622.531 93.4638C626.583 89.3237 629.423 85.8883 631.053 83.1576C632.727 80.3828 633.564 77.4099 633.564 74.2387C633.564 70.1426 632.242 66.9054 629.6 64.5271C627.001 62.1046 623.301 60.8934 618.501 60.8934C613.656 60.8934 609.097 62.1267 604.825 64.5931V71.8603C604.825 73.4019 604.451 74.503 603.702 75.1636C602.953 75.8243 601.676 76.1546 599.87 76.1546C598.064 76.1546 596.787 75.8243 596.038 75.1636C595.29 74.503 594.915 73.4019 594.915 71.8603V62.1487C594.915 60.431 595.422 59.2198 596.435 58.5151C599.65 56.1808 603.129 54.375 606.873 53.0977C610.617 51.7764 614.471 51.1157 618.435 51.1157Z" fill="#686565"/>
<path d="M560.362 68.491C562.168 68.491 563.445 68.8213 564.194 69.482C564.942 70.1426 565.317 71.2437 565.317 72.7852V85.3377C565.317 86.8793 564.942 87.9803 564.194 88.641C563.445 89.3017 562.168 89.632 560.362 89.632C558.864 89.632 557.807 89.0594 557.191 87.9143C555.297 84.3027 552.544 81.7702 548.932 80.3167C545.321 78.8192 540.74 78.0705 535.191 78.0705C530.919 78.0705 527.571 78.8413 525.149 80.3828C522.77 81.8803 521.581 83.9944 521.581 86.7251C521.581 88.1345 522.022 89.2796 522.903 90.1605C523.827 91.0414 525.171 91.7681 526.933 92.3407C528.386 92.8252 530.06 93.1995 531.954 93.4638C533.891 93.7281 536.38 94.0143 539.419 94.3226C543.691 94.8071 547.127 95.2696 549.725 95.71C552.368 96.1064 554.856 96.723 557.191 97.5599C560.714 98.8371 563.445 100.687 565.383 103.109C567.365 105.532 568.356 108.725 568.356 112.689C568.356 116.653 567.343 120.132 565.317 123.127C563.335 126.078 560.406 128.369 556.53 129.998C552.698 131.628 548.096 132.443 542.722 132.443C537.965 132.443 533.781 131.782 530.17 130.461C526.558 129.139 523.409 127.135 520.722 124.449V128.148C520.722 129.69 520.348 130.791 519.599 131.452C518.85 132.112 517.573 132.443 515.767 132.443C513.962 132.443 512.684 132.112 511.936 131.452C511.187 130.791 510.812 129.69 510.812 128.148V112.293C510.812 110.751 511.187 109.65 511.936 108.989C512.684 108.329 513.962 107.998 515.767 107.998C516.692 107.998 517.419 108.218 517.948 108.659C518.476 109.055 518.939 109.738 519.335 110.707C520.921 114.935 523.563 118.018 527.263 119.956C530.963 121.894 535.895 122.863 542.062 122.863C547.171 122.863 551.091 121.938 553.821 120.088C556.552 118.238 557.917 115.772 557.917 112.689C557.917 111.191 557.433 109.958 556.464 108.989C555.495 108.02 554.108 107.227 552.302 106.611C550.76 106.126 548.976 105.73 546.95 105.422C544.968 105.069 542.436 104.739 539.353 104.431C535.213 103.99 531.755 103.528 528.981 103.043C526.206 102.559 523.651 101.854 521.317 100.929C518.102 99.652 515.591 97.8902 513.785 95.644C512.024 93.3537 511.143 90.3807 511.143 86.7251C511.143 82.8933 512.134 79.612 514.116 76.8813C516.142 74.1066 518.917 72.0145 522.44 70.6051C526.008 69.1957 530.038 68.491 534.53 68.491C538.802 68.491 542.7 69.1296 546.224 70.4069C549.791 71.6841 552.852 73.4679 555.407 75.7582V72.7852C555.407 71.2437 555.781 70.1426 556.53 69.482C557.279 68.8213 558.556 68.491 560.362 68.491Z" fill="#686565"/>
<path d="M479.235 68.491C481.041 68.491 482.318 68.8213 483.067 69.482C483.815 70.1426 484.19 71.2437 484.19 72.7852V85.3377C484.19 86.8793 483.815 87.9803 483.067 88.641C482.318 89.3017 481.041 89.632 479.235 89.632C477.737 89.632 476.68 89.0594 476.064 87.9143C474.17 84.3027 471.417 81.7702 467.805 80.3167C464.194 78.8192 459.613 78.0705 454.064 78.0705C449.792 78.0705 446.444 78.8413 444.022 80.3828C441.643 81.8803 440.454 83.9944 440.454 86.7251C440.454 88.1345 440.895 89.2796 441.776 90.1605C442.7 91.0414 444.044 91.7681 445.806 92.3407C447.259 92.8252 448.933 93.1995 450.827 93.4638C452.764 93.7281 455.253 94.0143 458.292 94.3226C462.564 94.8071 466 95.2696 468.598 95.71C471.241 96.1064 473.729 96.723 476.064 97.5599C479.587 98.8371 482.318 100.687 484.256 103.109C486.238 105.532 487.229 108.725 487.229 112.689C487.229 116.653 486.216 120.132 484.19 123.127C482.208 126.078 479.279 128.369 475.403 129.998C471.571 131.628 466.969 132.443 461.595 132.443C456.839 132.443 452.654 131.782 449.043 130.461C445.431 129.139 442.282 127.135 439.595 124.449V128.148C439.595 129.69 439.221 130.791 438.472 131.452C437.724 132.112 436.446 132.443 434.64 132.443C432.835 132.443 431.557 132.112 430.809 131.452C430.06 130.791 429.686 129.69 429.686 128.148V112.293C429.686 110.751 430.06 109.65 430.809 108.989C431.557 108.329 432.835 107.998 434.64 107.998C435.565 107.998 436.292 108.218 436.821 108.659C437.349 109.055 437.812 109.738 438.208 110.707C439.794 114.935 442.436 118.018 446.136 119.956C449.836 121.894 454.768 122.863 460.935 122.863C466.044 122.863 469.964 121.938 472.694 120.088C475.425 118.238 476.79 115.772 476.79 112.689C476.79 111.191 476.306 109.958 475.337 108.989C474.368 108.02 472.981 107.227 471.175 106.611C469.633 106.126 467.849 105.73 465.823 105.422C463.841 105.069 461.309 104.739 458.226 104.431C454.086 103.99 450.628 103.528 447.854 103.043C445.079 102.559 442.524 101.854 440.19 100.929C436.975 99.652 434.464 97.8902 432.658 95.644C430.897 93.3537 430.016 90.3807 430.016 86.7251C430.016 82.8933 431.007 79.612 432.989 76.8813C435.015 74.1066 437.79 72.0145 441.313 70.6051C444.881 69.1957 448.911 68.491 453.403 68.491C457.675 68.491 461.573 69.1296 465.097 70.4069C468.664 71.6841 471.725 73.4679 474.28 75.7582V72.7852C474.28 71.2437 474.654 70.1426 475.403 69.482C476.152 68.8213 477.429 68.491 479.235 68.491Z" fill="#686565"/>
<path d="M377.295 68.491C383.329 68.491 388.768 69.8563 393.613 72.587C398.458 75.3178 402.246 79.1275 404.976 84.0164C407.751 88.8612 409.138 94.3447 409.138 100.467C409.138 106.589 407.751 112.094 404.976 116.983C402.246 121.828 398.458 125.616 393.613 128.346C388.768 131.077 383.329 132.443 377.295 132.443C371.261 132.443 365.821 131.077 360.977 128.346C356.132 125.616 352.322 121.828 349.547 116.983C346.817 112.094 345.451 106.589 345.451 100.467C345.451 94.3447 346.817 88.8612 349.547 84.0164C352.322 79.1275 356.132 75.3178 360.977 72.587C365.821 69.8563 371.261 68.491 377.295 68.491ZM377.295 78.2687C373.023 78.2687 369.257 79.2156 365.998 81.1095C362.782 82.9594 360.294 85.58 358.532 88.9713C356.77 92.3187 355.89 96.1505 355.89 100.467C355.89 104.783 356.77 108.637 358.532 112.028C360.294 115.376 362.782 117.996 365.998 119.89C369.257 121.74 373.023 122.665 377.295 122.665C381.567 122.665 385.311 121.74 388.526 119.89C391.785 117.996 394.296 115.376 396.057 112.028C397.819 108.637 398.7 104.783 398.7 100.467C398.7 96.1505 397.819 92.3187 396.057 88.9713C394.296 85.58 391.785 82.9594 388.526 81.1095C385.311 79.2156 381.567 78.2687 377.295 78.2687Z" fill="#686565"/>
<path d="M285.86 51.1157C287.666 51.1157 288.943 51.446 289.692 52.1067C290.441 52.7674 290.815 53.8685 290.815 55.41V75.2297H317.968C319.466 75.2297 320.523 75.582 321.14 76.2867C321.8 76.9474 322.13 78.0925 322.13 79.7222C322.13 81.3518 321.8 82.5189 321.14 83.2236C320.523 83.8843 319.466 84.2146 317.968 84.2146H290.815V108.263C290.815 113.284 291.674 116.961 293.392 119.296C295.154 121.63 298.193 122.797 302.509 122.797C305.46 122.797 308.565 122.202 311.824 121.013C315.083 119.824 318.233 118.238 321.272 116.256C321.888 115.816 322.571 115.596 323.32 115.596C324.817 115.596 326.094 116.609 327.151 118.635C327.724 119.78 328.01 120.771 328.01 121.608C328.01 123.017 327.284 124.162 325.83 125.043C322.395 127.201 318.563 128.985 314.335 130.395C310.107 131.76 306.165 132.443 302.509 132.443C295.022 132.443 289.538 130.505 286.059 126.629C282.623 122.709 280.906 116.873 280.906 109.121V84.2146H267.494C265.997 84.2146 264.918 83.8843 264.257 83.2236C263.64 82.5189 263.332 81.3518 263.332 79.7222C263.332 78.0925 263.64 76.9474 264.257 76.2867C264.918 75.582 265.997 75.2297 267.494 75.2297H280.906V55.41C280.906 53.8685 281.28 52.7674 282.029 52.1067C282.777 51.446 284.055 51.1157 285.86 51.1157Z" fill="#686565"/>
<path d="M170.411 1.13672C179.004 1.13672 186.334 3.42866 191.61 7.48535C196.868 11.5277 200.149 17.3652 200.623 24.626L200.624 24.6348C201.431 35.6285 202.025 49.3351 202.812 61.5684V61.5693C203.221 67.854 204.651 72.6426 207.463 75.8633C210.315 79.1305 214.419 80.5976 219.723 80.5977C221.829 80.5977 223.479 81.1474 224.587 82.1133C225.671 83.0588 226.37 84.5203 226.37 86.6465C226.37 88.7724 225.671 90.2333 224.587 91.1787C223.479 92.1446 221.829 92.6953 219.723 92.6953C214.419 92.6953 210.315 94.1615 207.463 97.4287C204.687 100.609 203.259 105.318 202.829 111.486L202.802 111.543L202.788 111.775L200.6 148.719C200.124 155.976 196.843 161.811 191.587 165.853C186.31 169.909 178.981 172.201 170.389 172.201C167.608 172.201 164.915 171.944 162.94 170.89C161.979 170.376 161.202 169.681 160.657 168.73C160.109 167.775 159.756 166.492 159.756 164.747C159.756 163.136 160.056 162.079 160.461 161.385C160.855 160.709 161.392 160.3 162.03 160.046C163.406 159.5 165.193 159.682 166.855 159.886V159.887C168.485 160.099 171.138 160.287 172.6 160.287C179.863 160.287 187.264 155.357 187.716 146.425V146.422L189.305 113.072C189.892 100.941 194.362 92.0132 202.851 87.6816L204.836 86.6689L202.851 85.6562C194.627 81.46 190.175 72.9509 189.371 61.3936L189.305 60.2656L187.716 26.916C187.289 17.9947 179.851 13.0508 172.415 13.0508C170.942 13.0508 168.494 13.2638 166.895 13.4492L166.888 13.4502C165.222 13.6539 163.432 13.8392 162.054 13.292C161.415 13.0383 160.878 12.6285 160.484 11.9531C160.079 11.2585 159.779 10.2023 159.779 8.59082C159.779 6.8528 160.133 5.57344 160.683 4.61914C161.229 3.66924 162.009 2.97227 162.973 2.45703C164.951 1.39921 167.645 1.13674 170.411 1.13672Z" fill="#349CEA" stroke="#349CEA" stroke-width="2.27424"/>
<path d="M57.0957 1.18262C59.8762 1.18262 62.569 1.43948 64.5439 2.49414C65.5052 3.00746 66.2822 3.70298 66.8271 4.65332C67.3749 5.60855 67.7285 6.89148 67.7285 8.63672C67.7285 10.2482 67.4284 11.3044 67.0234 11.999C66.6296 12.6745 66.0927 13.0842 65.4541 13.3379C64.0784 13.8844 62.2912 13.7004 60.6279 13.4971H60.6289C59.0056 13.2853 56.5596 13.0967 55.0928 13.0967C47.6583 13.0967 40.2192 18.0162 39.792 26.9619L38.2031 60.3115C37.6157 72.4432 33.1463 81.3705 24.6572 85.7021L22.6719 86.7148L24.6572 87.7275C32.881 91.9238 37.3325 100.433 38.1367 111.99L38.2031 113.118L39.792 146.468C40.2188 155.381 47.6466 160.333 54.9082 160.333C56.3774 160.333 59.0067 160.121 60.6338 159.935L60.6426 159.934C62.3082 159.73 64.0996 159.544 65.4775 160.092C66.1159 160.345 66.6521 160.755 67.0459 161.431C67.4509 162.125 67.751 163.181 67.751 164.793C67.751 166.531 67.3968 167.81 66.8477 168.765C66.3009 169.715 65.5214 170.412 64.5576 170.928C62.5789 171.985 59.8853 172.247 57.1191 172.247C48.5266 172.247 41.1967 169.955 35.9199 165.898C30.6636 161.857 27.3836 156.022 26.9082 148.765L24.7197 111.821V111.814L24.6309 110.654C24.126 104.938 22.7041 100.54 20.0684 97.5205C17.3443 94.3998 13.4778 92.9223 8.51465 92.7959L8.4873 92.7412H7.78516C5.67893 92.7412 4.0284 92.1905 2.9209 91.2246C1.83686 90.2792 1.13683 88.8183 1.13672 86.6924C1.13672 84.5662 1.83678 83.1047 2.9209 82.1592C4.0284 81.1933 5.67893 80.6426 7.78516 80.6426C13.0892 80.6425 17.1929 79.1764 20.0449 75.9092C22.8562 72.6886 24.2866 67.9004 24.6963 61.6162C25.5073 49.3576 26.0983 35.6981 26.8838 24.6787L26.8848 24.6719C27.3586 17.4111 30.6394 11.5736 35.8975 7.53125C41.1742 3.4747 48.5035 1.18268 57.0957 1.18262Z" fill="#349CEA" stroke="#349CEA" stroke-width="2.27424"/>
<path d="M110.273 117.91C113.245 117.91 115.654 115.501 115.654 112.529C115.654 109.557 113.245 107.148 110.273 107.148L81.0078 107.148C78.0361 107.148 75.627 109.557 75.627 112.529C75.627 115.501 78.0361 117.91 81.0078 117.91L110.273 117.91Z" fill="#00217E"/>
<path d="M132.233 93.1765C135.204 93.1765 137.613 90.7674 137.613 87.7956C137.613 84.8238 135.204 82.4147 132.233 82.4147L81.0078 82.4147C78.0361 82.4147 75.627 84.8238 75.627 87.7956C75.627 90.7674 78.0361 93.1765 81.0078 93.1765L132.233 93.1765Z" fill="#00217E"/>
<path d="M151.956 68.4429L152.232 68.4362C155.075 68.2922 157.336 65.941 157.336 63.062C157.336 60.183 155.075 57.8318 152.232 57.6878L151.956 57.6811L81.0078 57.6811C78.0361 57.6811 75.627 60.0902 75.627 63.062C75.627 66.0338 78.0361 68.4429 81.0078 68.4429L151.956 68.4429Z" fill="#00217E"/>
</svg>
