<svg width="298" height="298" viewBox="0 0 298 298" fill="none" xmlns="http://www.w3.org/2000/svg">
<rect width="298" height="298" fill="white"/>
<path d="M209.952 56.9753C219.193 56.9754 227.075 59.4399 232.748 63.8015C238.401 68.1476 241.929 74.4235 242.438 82.2302L242.439 82.24C243.307 94.0672 243.946 108.811 244.792 121.972V121.973C245.233 128.736 246.772 133.892 249.8 137.361C252.872 140.88 257.292 142.459 263.001 142.459C265.264 142.459 267.036 143.051 268.224 144.087C269.386 145.1 270.138 146.667 270.138 148.951C270.138 151.234 269.386 152.802 268.224 153.815C267.036 154.851 265.264 155.442 263.001 155.442C257.292 155.442 252.872 157.021 249.8 160.54C246.81 163.965 245.274 169.035 244.812 175.672L244.782 175.731L244.767 175.984L242.413 215.728C241.902 223.531 238.375 229.805 232.724 234.149C227.05 238.511 219.168 240.975 209.927 240.975C206.936 240.975 204.043 240.7 201.922 239.567C200.89 239.016 200.056 238.269 199.472 237.25C198.884 236.225 198.505 234.848 198.505 232.972C198.505 231.241 198.827 230.107 199.261 229.363C199.682 228.64 200.257 228.201 200.941 227.929C202.417 227.343 204.335 227.539 206.125 227.758V227.759C207.879 227.987 210.732 228.19 212.306 228.19C220.126 228.19 228.096 222.882 228.583 213.262V213.259L230.293 177.382C230.925 164.333 235.732 154.735 244.857 150.079L247.02 148.975L244.857 147.872C235.732 143.215 230.925 133.617 230.293 120.569L228.583 84.6921C228.123 75.0843 220.114 69.7605 212.107 69.7605C210.522 69.7605 207.887 69.9907 206.167 70.1902L206.159 70.1912C204.366 70.4104 202.444 70.6084 200.966 70.0212C200.282 69.7495 199.707 69.311 199.285 68.5876C198.851 67.8435 198.529 66.7101 198.529 64.9783C198.529 63.1104 198.91 61.7365 199.499 60.7126C200.086 59.6936 200.922 58.9455 201.957 58.3923C204.082 57.2564 206.977 56.9753 209.952 56.9753Z" fill="#349CEA" stroke="#349CEA" stroke-width="2.47779"/>
<path d="M88.0498 57.0249C91.0407 57.0249 93.9338 57.3005 96.0547 58.4331C97.0866 58.9842 97.9202 59.7309 98.5049 60.7505C99.0925 61.7753 99.4717 63.1525 99.4717 65.0278C99.4717 66.7597 99.1497 67.893 98.7158 68.6372C98.2941 69.3605 97.7192 69.799 97.0352 70.0708C95.5595 70.657 93.6408 70.4605 91.8506 70.2417H91.8516C90.1045 70.0138 87.4723 69.8101 85.8936 69.8101C77.8892 69.8101 69.878 75.1076 69.418 84.7417L67.708 120.619C67.0763 133.667 62.2702 143.265 53.1445 147.921L50.9814 149.025L53.1445 150.128C61.985 154.639 66.7718 163.787 67.6367 176.217L67.708 177.431L69.418 213.308C69.8776 222.907 77.8769 228.24 85.6953 228.24C87.2768 228.24 90.1067 228.011 91.8574 227.811L91.8672 227.809C93.6599 227.59 95.5826 227.392 97.0605 227.979C97.7444 228.251 98.3186 228.689 98.7402 229.413C99.1741 230.157 99.4971 231.29 99.4971 233.022C99.4971 234.89 99.1156 236.264 98.5264 237.288C97.9399 238.306 97.1038 239.054 96.0693 239.607C93.9443 240.743 91.0499 241.025 88.0742 241.025C78.8332 241.025 70.9518 238.56 65.2783 234.199C59.8018 229.988 56.3199 223.967 55.6445 216.498L55.5879 215.77L53.2344 176.034L53.2334 176.027L53.1387 174.778C52.5954 168.626 51.0653 163.891 48.2266 160.639C45.2942 157.28 41.1333 155.69 35.7959 155.552L35.7656 155.492H35C32.7366 155.492 30.9652 154.901 29.7773 153.865C28.6151 152.851 27.8643 151.284 27.8643 149C27.8643 146.717 28.6152 145.15 29.7773 144.136C30.9652 143.1 32.7366 142.508 35 142.508C40.709 142.508 45.129 140.93 48.2012 137.411C51.2288 133.942 52.7681 128.787 53.209 122.025C54.0816 108.836 54.7175 94.1419 55.5625 82.2866V82.2798C56.0719 74.4731 59.5998 68.1972 65.2529 63.8511C70.9265 59.4893 78.8085 57.0249 88.0498 57.0249Z" fill="#349CEA" stroke="#349CEA" stroke-width="2.47779"/>
<path d="M145.259 182.585C148.456 182.585 151.048 179.993 151.048 176.796C151.048 173.599 148.456 171.007 145.259 171.007L113.775 171.007C110.578 171.007 107.986 173.599 107.986 176.796C107.986 179.993 110.578 182.585 113.775 182.585L145.259 182.585Z" fill="#00217E"/>
<path d="M168.883 155.976C172.08 155.976 174.672 153.384 174.672 150.187C174.672 146.99 172.08 144.398 168.883 144.398L113.775 144.398C110.578 144.398 107.986 146.99 107.986 150.187C107.986 153.384 110.578 155.976 113.775 155.976L168.883 155.976Z" fill="#00217E"/>
<path d="M190.101 129.367L190.399 129.36C193.457 129.205 195.89 126.676 195.89 123.579C195.89 120.481 193.457 117.952 190.399 117.797L190.101 117.79L113.775 117.79C110.578 117.79 107.986 120.382 107.986 123.579C107.986 126.776 110.578 129.367 113.775 129.367L190.101 129.367Z" fill="#00217E"/>
</svg>
