<svg width="1769" height="951" viewBox="0 0 1769 951" fill="none" xmlns="http://www.w3.org/2000/svg">
<rect y="0.533691" width="1769" height="950" rx="75.0965" fill="white"/>
<path d="M1340.76 558.842C1347.14 558.842 1352.58 560.141 1357.08 562.74C1361.61 565.295 1365.09 568.862 1367.51 573.443C1369.94 577.979 1371.32 583.22 1371.68 589.166C1371.68 590.664 1371.35 591.721 1370.69 592.337C1370.07 592.954 1369.01 593.262 1367.51 593.262H1319.68C1319.99 599.825 1321.93 604.802 1325.5 608.193C1329.11 611.541 1334.19 613.214 1340.76 613.214C1344.81 613.214 1348.82 612.708 1352.78 611.695C1356.75 610.638 1360.22 609.25 1363.22 607.533C1363.97 607.136 1364.65 606.938 1365.27 606.938C1366.81 606.938 1368.06 608.105 1369.03 610.439C1369.43 611.364 1369.63 612.201 1369.63 612.95C1369.63 614.712 1368.66 616.077 1366.72 617.046C1363.33 618.764 1359.32 620.151 1354.7 621.208C1350.07 622.265 1345.43 622.794 1340.76 622.794C1334.11 622.794 1328.43 621.516 1323.71 618.962C1319 616.407 1315.41 612.73 1312.94 607.929C1310.48 603.128 1309.24 597.425 1309.24 590.818C1309.24 584.52 1310.59 578.948 1313.27 574.103C1315.96 569.259 1319.68 565.515 1324.44 562.872C1329.2 560.186 1334.64 558.842 1340.76 558.842ZM1340.76 568.422C1335.34 568.422 1330.85 569.809 1327.28 572.584C1323.76 575.315 1321.44 579.124 1320.34 584.013H1360.71C1359.78 578.948 1357.65 575.094 1354.3 572.452C1351 569.765 1346.48 568.422 1340.76 568.422Z" fill="#686565"/>
<path d="M1266.5 558.842C1270.51 558.842 1273.99 559.723 1276.94 561.485C1279.89 563.203 1282.16 565.691 1283.74 568.95C1285.33 572.209 1286.12 576.019 1286.12 580.38V612.355H1291.54C1293.04 612.355 1294.09 612.708 1294.71 613.412C1295.37 614.073 1295.7 615.218 1295.7 616.848C1295.7 618.477 1295.37 619.645 1294.71 620.349C1294.09 621.01 1293.04 621.34 1291.54 621.34H1270.13C1268.64 621.34 1267.56 621.01 1266.9 620.349C1266.28 619.645 1265.97 618.477 1265.97 616.848C1265.97 615.218 1266.28 614.073 1266.9 613.412C1267.56 612.708 1268.64 612.355 1270.13 612.355H1276.21V581.371C1276.21 577.451 1275.31 574.346 1273.5 572.055C1271.7 569.765 1269.03 568.62 1265.51 568.62C1261.76 568.62 1258.26 569.699 1255 571.857C1251.79 574.015 1249.21 576.988 1247.27 580.776C1245.34 584.564 1244.37 588.792 1244.37 593.461V612.355H1250.45C1251.94 612.355 1253 612.708 1253.62 613.412C1254.28 614.073 1254.61 615.218 1254.61 616.848C1254.61 618.477 1254.28 619.645 1253.62 620.349C1253 621.01 1251.94 621.34 1250.45 621.34H1229.04C1227.54 621.34 1226.46 621.01 1225.8 620.349C1225.19 619.645 1224.88 618.477 1224.88 616.848C1224.88 615.218 1225.19 614.073 1225.8 613.412C1226.46 612.708 1227.54 612.355 1229.04 612.355H1234.46V569.281H1227.72C1226.22 569.281 1225.14 568.95 1224.48 568.29C1223.86 567.585 1223.56 566.418 1223.56 564.788C1223.56 563.158 1223.86 562.013 1224.48 561.353C1225.14 560.648 1226.22 560.296 1227.72 560.296H1239.54C1241.04 560.296 1242.1 560.648 1242.72 561.353C1243.38 562.013 1243.71 563.158 1243.71 564.788V572.716C1246.61 568.224 1250 564.788 1253.88 562.41C1257.8 560.031 1262.01 558.842 1266.5 558.842Z" fill="#686565"/>
<path d="M1180.28 560.296C1181.78 560.296 1182.84 560.648 1183.45 561.353C1184.12 562.013 1184.45 563.158 1184.45 564.788V612.355H1205.65C1207.15 612.355 1208.21 612.708 1208.82 613.412C1209.48 614.073 1209.82 615.218 1209.82 616.848C1209.82 618.477 1209.48 619.645 1208.82 620.349C1208.21 621.01 1207.15 621.34 1205.65 621.34H1153.86C1152.36 621.34 1151.28 621.01 1150.62 620.349C1150 619.645 1149.7 618.477 1149.7 616.848C1149.7 615.218 1150 614.073 1150.62 613.412C1151.28 612.708 1152.36 612.355 1153.86 612.355H1174.54V569.281H1157.82C1156.32 569.281 1155.24 568.95 1154.58 568.29C1153.97 567.585 1153.66 566.418 1153.66 564.788C1153.66 563.158 1153.97 562.013 1154.58 561.353C1155.24 560.648 1156.32 560.296 1157.82 560.296H1180.28ZM1178.17 531.293C1180.59 531.293 1182.24 531.623 1183.12 532.284C1184.01 532.9 1184.45 534.001 1184.45 535.587V544.176C1184.45 545.761 1184.01 546.884 1183.12 547.545C1182.24 548.162 1180.59 548.47 1178.17 548.47C1175.75 548.47 1174.1 548.162 1173.21 547.545C1172.33 546.884 1171.89 545.761 1171.89 544.176V535.587C1171.89 534.001 1172.33 532.9 1173.21 532.284C1174.1 531.623 1175.75 531.293 1178.17 531.293Z" fill="#686565"/>
<path d="M1077.29 534.662C1078.78 534.662 1079.84 535.014 1080.46 535.719C1081.12 536.38 1081.45 537.525 1081.45 539.155V572.055C1084.31 567.783 1087.62 564.524 1091.36 562.278C1095.15 559.987 1099.22 558.842 1103.58 558.842C1107.59 558.842 1111.07 559.723 1114.02 561.485C1116.97 563.203 1119.24 565.691 1120.82 568.95C1122.41 572.209 1123.2 576.019 1123.2 580.38V612.355H1128.62C1130.12 612.355 1131.17 612.708 1131.79 613.412C1132.45 614.073 1132.78 615.218 1132.78 616.848C1132.78 618.477 1132.45 619.645 1131.79 620.349C1131.17 621.01 1130.12 621.34 1128.62 621.34H1107.21C1105.72 621.34 1104.64 621.01 1103.98 620.349C1103.36 619.645 1103.05 618.477 1103.05 616.848C1103.05 615.218 1103.36 614.073 1103.98 613.412C1104.64 612.708 1105.72 612.355 1107.21 612.355H1113.29V581.371C1113.29 577.451 1112.39 574.346 1110.58 572.055C1108.78 569.765 1106.11 568.62 1102.59 568.62C1098.85 568.62 1095.34 569.699 1092.09 571.857C1088.87 574.015 1086.29 576.988 1084.36 580.776C1082.42 584.564 1081.45 588.792 1081.45 593.461V612.355H1087.53C1089.02 612.355 1090.08 612.708 1090.7 613.412C1091.36 614.073 1091.69 615.218 1091.69 616.848C1091.69 618.477 1091.36 619.645 1090.7 620.349C1090.08 621.01 1089.02 621.34 1087.53 621.34H1066.12C1064.62 621.34 1063.55 621.01 1062.88 620.349C1062.27 619.645 1061.96 618.477 1061.96 616.848C1061.96 615.218 1062.27 614.073 1062.88 613.412C1063.55 612.708 1064.62 612.355 1066.12 612.355H1071.54V543.647H1065.46C1063.96 543.647 1062.88 543.317 1062.22 542.656C1061.61 541.951 1061.3 540.784 1061.3 539.155C1061.3 537.525 1061.61 536.38 1062.22 535.719C1062.88 535.014 1063.96 534.662 1065.46 534.662H1077.29Z" fill="#686565"/>
<path d="M1039.43 558.842C1041.24 558.842 1042.52 559.173 1043.26 559.833C1044.01 560.494 1044.39 561.595 1044.39 563.136V582.295C1044.39 583.837 1044.01 584.938 1043.26 585.599C1042.52 586.259 1041.24 586.59 1039.43 586.59C1037.63 586.59 1036.35 586.259 1035.6 585.599C1034.85 584.938 1034.48 583.837 1034.48 582.295C1034.48 579.609 1033.77 577.23 1032.36 575.16C1030.95 573.09 1028.84 571.483 1026.02 570.338C1023.25 569.192 1019.9 568.62 1015.98 568.62C1011.75 568.62 1007.96 569.567 1004.62 571.461C1001.27 573.355 998.648 575.997 996.754 579.389C994.86 582.78 993.913 586.59 993.913 590.818C993.913 595.09 994.794 598.922 996.556 602.313C998.361 605.661 1000.87 608.281 1004.09 610.175C1007.35 612.069 1011.09 613.016 1015.32 613.016C1019.37 613.016 1023.29 612.399 1027.08 611.166C1030.91 609.889 1034.39 608.061 1037.52 605.683C1038.44 604.978 1039.3 604.626 1040.09 604.626C1041.37 604.626 1042.56 605.529 1043.66 607.334C1044.32 608.435 1044.65 609.493 1044.65 610.506C1044.65 612.047 1043.95 613.324 1042.54 614.337C1039.01 616.98 1034.85 619.05 1030.05 620.548C1025.25 622.045 1020.34 622.794 1015.32 622.794C1009.02 622.794 1003.45 621.406 998.604 618.632C993.803 615.857 990.081 612.047 987.439 607.202C984.796 602.357 983.475 596.896 983.475 590.818C983.475 584.74 984.818 579.278 987.505 574.434C990.191 569.589 993.935 565.779 998.736 563.004C1003.58 560.23 1009.11 558.842 1015.32 558.842C1019.24 558.842 1022.83 559.569 1026.09 561.022C1029.39 562.432 1032.19 564.458 1034.48 567.1V563.136C1034.48 561.595 1034.85 560.494 1035.6 559.833C1036.35 559.173 1037.63 558.842 1039.43 558.842Z" fill="#686565"/>
<path d="M934.783 558.842C943.063 558.842 949.273 560.692 953.413 564.392C957.553 568.091 959.623 573.575 959.623 580.842V607.136C959.623 610.616 961.077 612.355 963.984 612.355H966.296C967.794 612.355 968.851 612.708 969.467 613.412C970.128 614.073 970.458 615.218 970.458 616.848C970.458 618.477 970.128 619.645 969.467 620.349C968.851 621.01 967.794 621.34 966.296 621.34H962.068C959.205 621.34 956.739 620.636 954.669 619.226C952.643 617.773 951.321 615.659 950.705 612.884C947.093 616.055 943.173 618.499 938.945 620.217C934.761 621.935 930.312 622.794 925.6 622.794C921.151 622.794 917.209 622.045 913.774 620.548C910.383 619.006 907.718 616.782 905.78 613.875C903.842 610.968 902.873 607.511 902.873 603.503C902.873 596.544 905.362 591.413 910.339 588.109C915.315 584.762 921.746 583.088 929.63 583.088C936.633 583.088 943.327 584.211 949.714 586.458V580.842C949.714 576.57 948.502 573.443 946.08 571.461C943.702 569.435 939.848 568.422 934.518 568.422C931.215 568.422 927.78 568.884 924.212 569.809C920.645 570.734 917.253 572.011 914.038 573.641C913.289 574.037 912.607 574.235 911.99 574.235C910.537 574.235 909.325 573.178 908.357 571.064C907.872 570.007 907.63 569.126 907.63 568.422C907.63 566.88 908.445 565.691 910.074 564.854C913.774 562.916 917.738 561.441 921.966 560.428C926.238 559.371 930.511 558.842 934.783 558.842ZM929.696 592.404C924.631 592.404 920.623 593.284 917.672 595.046C914.765 596.764 913.311 599.517 913.311 603.304C913.311 606.52 914.413 609.03 916.615 610.836C918.861 612.598 921.988 613.479 925.996 613.479C934.761 613.479 942.667 609.845 949.714 602.578V595.377C946.719 594.408 943.503 593.681 940.068 593.196C936.633 592.668 933.175 592.404 929.696 592.404Z" fill="#686565"/>
<path d="M882.04 612.355C883.538 612.355 884.595 612.708 885.211 613.412C885.872 614.073 886.202 615.218 886.202 616.848C886.202 618.477 885.872 619.645 885.211 620.349C884.595 621.01 883.538 621.34 882.04 621.34H872.197C870.699 621.34 869.62 621.01 868.959 620.349C868.343 619.645 868.034 618.477 868.034 616.848V577.737C868.034 574.698 867.528 572.43 866.515 570.932C865.546 569.391 863.96 568.62 861.758 568.62C859.688 568.62 857.772 569.589 856.01 571.527C854.249 573.421 852.839 576.085 851.782 579.521C850.769 582.912 850.263 586.788 850.263 591.148V612.355H854.028C855.526 612.355 856.583 612.708 857.2 613.412C857.86 614.073 858.191 615.218 858.191 616.848C858.191 618.477 857.86 619.645 857.2 620.349C856.583 621.01 855.526 621.34 854.028 621.34H844.515C843.017 621.34 841.938 621.01 841.278 620.349C840.661 619.645 840.353 618.477 840.353 616.848V577.737C840.353 574.698 839.846 572.43 838.833 570.932C837.864 569.391 836.279 568.62 834.077 568.62C832.007 568.62 830.091 569.589 828.329 571.527C826.567 573.421 825.158 576.085 824.101 579.521C823.088 582.912 822.581 586.788 822.581 591.148V612.355H826.017C827.514 612.355 828.571 612.708 829.188 613.412C829.848 614.073 830.179 615.218 830.179 616.848C830.179 618.477 829.848 619.645 829.188 620.349C828.571 621.01 827.514 621.34 826.017 621.34H807.254C805.756 621.34 804.677 621.01 804.017 620.349C803.4 619.645 803.092 618.477 803.092 616.848C803.092 615.218 803.4 614.073 804.017 613.412C804.677 612.708 805.756 612.355 807.254 612.355H812.671V569.281H807.254C805.756 569.281 804.677 568.95 804.017 568.29C803.4 567.585 803.092 566.418 803.092 564.788C803.092 563.158 803.4 562.013 804.017 561.353C804.677 560.648 805.756 560.296 807.254 560.296H817.098C818.595 560.296 819.652 560.648 820.269 561.353C820.93 562.013 821.26 563.158 821.26 564.788V571.329C823.154 567.188 825.422 564.083 828.065 562.013C830.707 559.899 833.57 558.842 836.653 558.842C839.648 558.842 842.269 559.855 844.515 561.881C846.761 563.907 848.281 566.88 849.074 570.8C852.993 562.828 858.058 558.842 864.269 558.842C866.867 558.842 869.179 559.503 871.206 560.824C873.276 562.101 874.905 564.083 876.094 566.77C877.328 569.413 877.944 572.672 877.944 576.548V612.355H882.04Z" fill="#686565"/>
<path d="M752.427 541.467C757.536 541.467 762.006 542.392 765.838 544.242C769.714 546.047 772.709 548.69 774.823 552.17C776.937 555.649 777.994 559.789 777.994 564.59C777.994 569.082 776.871 573.222 774.625 577.01C772.423 580.754 768.965 585.026 764.252 589.827L742.054 612.355H770.727V604.031C770.727 602.49 771.101 601.388 771.85 600.728C772.599 600.067 773.876 599.737 775.682 599.737C777.488 599.737 778.765 600.067 779.514 600.728C780.262 601.388 780.637 602.49 780.637 604.031V616.848C780.637 618.477 780.306 619.645 779.646 620.349C779.029 621.01 777.972 621.34 776.475 621.34H730.625C729.128 621.34 728.048 621.01 727.388 620.349C726.771 619.645 726.463 618.477 726.463 616.848C726.463 615.174 726.793 613.985 727.454 613.28L756.523 583.815C760.575 579.675 763.416 576.239 765.045 573.509C766.719 570.734 767.556 567.761 767.556 564.59C767.556 560.494 766.234 557.257 763.592 554.878C760.993 552.456 757.294 551.245 752.493 551.245C747.648 551.245 743.089 552.478 738.817 554.944V562.212C738.817 563.753 738.443 564.854 737.694 565.515C736.945 566.175 735.668 566.506 733.862 566.506C732.056 566.506 730.779 566.175 730.03 565.515C729.282 564.854 728.907 563.753 728.907 562.212V552.5C728.907 550.782 729.414 549.571 730.427 548.866C733.642 546.532 737.121 544.726 740.865 543.449C744.609 542.128 748.463 541.467 752.427 541.467Z" fill="#686565"/>
<path d="M694.354 558.842C696.16 558.842 697.437 559.173 698.186 559.833C698.934 560.494 699.309 561.595 699.309 563.136V575.689C699.309 577.23 698.934 578.332 698.186 578.992C697.437 579.653 696.16 579.983 694.354 579.983C692.856 579.983 691.799 579.411 691.183 578.265C689.289 574.654 686.536 572.121 682.925 570.668C679.313 569.17 674.732 568.422 669.183 568.422C664.911 568.422 661.563 569.192 659.141 570.734C656.763 572.231 655.573 574.346 655.573 577.076C655.573 578.486 656.014 579.631 656.895 580.512C657.82 581.393 659.163 582.119 660.925 582.692C662.378 583.176 664.052 583.551 665.946 583.815C667.884 584.079 670.372 584.366 673.411 584.674C677.683 585.158 681.119 585.621 683.717 586.061C686.36 586.458 688.848 587.074 691.183 587.911C694.706 589.188 697.437 591.038 699.375 593.461C701.357 595.883 702.348 599.076 702.348 603.04C702.348 607.004 701.335 610.484 699.309 613.479C697.327 616.429 694.398 618.72 690.522 620.349C686.69 621.979 682.088 622.794 676.714 622.794C671.958 622.794 667.774 622.133 664.162 620.812C660.55 619.49 657.401 617.486 654.715 614.8V618.499C654.715 620.041 654.34 621.142 653.591 621.803C652.843 622.463 651.565 622.794 649.76 622.794C647.954 622.794 646.677 622.463 645.928 621.803C645.179 621.142 644.805 620.041 644.805 618.499V602.644C644.805 601.102 645.179 600.001 645.928 599.34C646.677 598.68 647.954 598.349 649.76 598.349C650.685 598.349 651.411 598.57 651.94 599.01C652.468 599.407 652.931 600.089 653.327 601.058C654.913 605.286 657.555 608.369 661.255 610.307C664.955 612.245 669.888 613.214 676.054 613.214C681.163 613.214 685.083 612.289 687.813 610.439C690.544 608.59 691.91 606.123 691.91 603.04C691.91 601.543 691.425 600.309 690.456 599.34C689.487 598.371 688.1 597.579 686.294 596.962C684.752 596.478 682.969 596.081 680.943 595.773C678.961 595.421 676.428 595.09 673.345 594.782C669.205 594.341 665.748 593.879 662.973 593.395C660.198 592.91 657.643 592.205 655.309 591.28C652.094 590.003 649.583 588.241 647.778 585.995C646.016 583.705 645.135 580.732 645.135 577.076C645.135 573.244 646.126 569.963 648.108 567.233C650.134 564.458 652.909 562.366 656.432 560.956C660 559.547 664.03 558.842 668.522 558.842C672.795 558.842 676.692 559.481 680.216 560.758C683.783 562.035 686.844 563.819 689.399 566.109V563.136C689.399 561.595 689.773 560.494 690.522 559.833C691.271 559.173 692.548 558.842 694.354 558.842Z" fill="#686565"/>
<path d="M613.227 558.842C615.033 558.842 616.31 559.173 617.059 559.833C617.808 560.494 618.182 561.595 618.182 563.136V575.689C618.182 577.23 617.808 578.332 617.059 578.992C616.31 579.653 615.033 579.983 613.227 579.983C611.729 579.983 610.672 579.411 610.056 578.265C608.162 574.654 605.409 572.121 601.798 570.668C598.186 569.17 593.605 568.422 588.056 568.422C583.784 568.422 580.436 569.192 578.014 570.734C575.636 572.231 574.446 574.346 574.446 577.076C574.446 578.486 574.887 579.631 575.768 580.512C576.693 581.393 578.036 582.119 579.798 582.692C581.251 583.176 582.925 583.551 584.819 583.815C586.757 584.079 589.245 584.366 592.284 584.674C596.556 585.158 599.992 585.621 602.59 586.061C605.233 586.458 607.722 587.074 610.056 587.911C613.579 589.188 616.31 591.038 618.248 593.461C620.23 595.883 621.221 599.076 621.221 603.04C621.221 607.004 620.208 610.484 618.182 613.479C616.2 616.429 613.271 618.72 609.395 620.349C605.563 621.979 600.961 622.794 595.587 622.794C590.831 622.794 586.647 622.133 583.035 620.812C579.423 619.49 576.274 617.486 573.588 614.8V618.499C573.588 620.041 573.213 621.142 572.464 621.803C571.716 622.463 570.438 622.794 568.633 622.794C566.827 622.794 565.55 622.463 564.801 621.803C564.052 621.142 563.678 620.041 563.678 618.499V602.644C563.678 601.102 564.052 600.001 564.801 599.34C565.55 598.68 566.827 598.349 568.633 598.349C569.558 598.349 570.284 598.57 570.813 599.01C571.341 599.407 571.804 600.089 572.2 601.058C573.786 605.286 576.428 608.369 580.128 610.307C583.828 612.245 588.761 613.214 594.927 613.214C600.036 613.214 603.956 612.289 606.686 610.439C609.417 608.59 610.783 606.123 610.783 603.04C610.783 601.543 610.298 600.309 609.329 599.34C608.36 598.371 606.973 597.579 605.167 596.962C603.625 596.478 601.842 596.081 599.816 595.773C597.834 595.421 595.301 595.09 592.218 594.782C588.078 594.341 584.621 593.879 581.846 593.395C579.071 592.91 576.516 592.205 574.182 591.28C570.967 590.003 568.456 588.241 566.651 585.995C564.889 583.705 564.008 580.732 564.008 577.076C564.008 573.244 564.999 569.963 566.981 567.233C569.007 564.458 571.782 562.366 575.305 560.956C578.873 559.547 582.903 558.842 587.395 558.842C591.668 558.842 595.565 559.481 599.089 560.758C602.656 562.035 605.718 563.819 608.272 566.109V563.136C608.272 561.595 608.646 560.494 609.395 559.833C610.144 559.173 611.421 558.842 613.227 558.842Z" fill="#686565"/>
<path d="M511.287 558.842C517.321 558.842 522.76 560.208 527.605 562.938C532.45 565.669 536.238 569.479 538.969 574.368C541.743 579.212 543.131 584.696 543.131 590.818C543.131 596.94 541.743 602.446 538.969 607.334C536.238 612.179 532.45 615.967 527.605 618.698C522.76 621.428 517.321 622.794 511.287 622.794C505.253 622.794 499.814 621.428 494.969 618.698C490.124 615.967 486.314 612.179 483.539 607.334C480.809 602.446 479.443 596.94 479.443 590.818C479.443 584.696 480.809 579.212 483.539 574.368C486.314 569.479 490.124 565.669 494.969 562.938C499.814 560.208 505.253 558.842 511.287 558.842ZM511.287 568.62C507.015 568.62 503.249 569.567 499.99 571.461C496.775 573.311 494.286 575.931 492.524 579.323C490.763 582.67 489.882 586.502 489.882 590.818C489.882 595.134 490.763 598.988 492.524 602.379C494.286 605.727 496.775 608.347 499.99 610.241C503.249 612.091 507.015 613.016 511.287 613.016C515.559 613.016 519.303 612.091 522.518 610.241C525.777 608.347 528.288 605.727 530.05 602.379C531.811 598.988 532.692 595.134 532.692 590.818C532.692 586.502 531.811 582.67 530.05 579.323C528.288 575.931 525.777 573.311 522.518 571.461C519.303 569.567 515.559 568.62 511.287 568.62Z" fill="#686565"/>
<path d="M419.853 541.467C421.658 541.467 422.936 541.797 423.684 542.458C424.433 543.119 424.808 544.22 424.808 545.761V565.581H451.961C453.458 565.581 454.515 565.933 455.132 566.638C455.792 567.299 456.123 568.444 456.123 570.073C456.123 571.703 455.792 572.87 455.132 573.575C454.515 574.235 453.458 574.566 451.961 574.566H424.808V598.614C424.808 603.635 425.666 607.312 427.384 609.647C429.146 611.981 432.185 613.148 436.501 613.148C439.452 613.148 442.557 612.554 445.816 611.364C449.076 610.175 452.225 608.59 455.264 606.608C455.88 606.167 456.563 605.947 457.312 605.947C458.809 605.947 460.087 606.96 461.144 608.986C461.716 610.131 462.003 611.122 462.003 611.959C462.003 613.368 461.276 614.514 459.822 615.394C456.387 617.553 452.555 619.336 448.327 620.746C444.099 622.111 440.157 622.794 436.501 622.794C429.014 622.794 423.53 620.856 420.051 616.98C416.615 613.06 414.898 607.224 414.898 599.473V574.566H401.486C399.989 574.566 398.91 574.235 398.249 573.575C397.633 572.87 397.324 571.703 397.324 570.073C397.324 568.444 397.633 567.299 398.249 566.638C398.91 565.933 399.989 565.581 401.486 565.581H414.898V545.761C414.898 544.22 415.272 543.119 416.021 542.458C416.77 541.797 418.047 541.467 419.853 541.467Z" fill="#686565"/>
<path d="M966.261 224.693C978.558 224.693 989.047 227.973 996.597 233.778C1004.12 239.561 1008.81 247.912 1009.49 258.3L1009.49 258.314C1010.65 274.053 1011.5 293.673 1012.62 311.187V311.188C1013.21 320.187 1015.26 327.048 1019.29 331.664C1023.38 336.348 1029.26 338.447 1036.85 338.448C1039.87 338.448 1042.22 339.235 1043.8 340.614C1045.35 341.962 1046.35 344.048 1046.35 347.087C1046.35 350.126 1045.35 352.211 1043.8 353.56C1042.22 354.938 1039.87 355.726 1036.85 355.726C1029.26 355.726 1023.38 357.826 1019.29 362.509C1015.31 367.067 1013.26 373.815 1012.65 382.649L1012.61 382.724L1012.59 383.061L1009.46 435.939C1008.78 446.327 1004.09 454.679 996.563 460.462C989.014 466.266 978.525 469.546 966.228 469.546C962.247 469.546 958.398 469.179 955.575 467.672C954.202 466.939 953.093 465.945 952.315 464.588C951.533 463.224 951.027 461.392 951.027 458.897C951.027 456.592 951.457 455.084 952.034 454.094C952.595 453.132 953.359 452.547 954.27 452.186C956.236 451.404 958.795 451.667 961.181 451.959C963.516 452.263 967.304 452.532 969.394 452.532C979.8 452.532 990.407 445.468 991.054 432.667L991.055 432.663L993.329 384.92C994.17 367.557 1000.57 354.785 1012.71 348.588L1015.59 347.119L1012.71 345.652C1000.76 339.552 994.372 327.081 993.373 310.13L993.329 309.32L991.055 261.576C990.442 248.791 979.784 241.706 969.13 241.706C967.02 241.706 963.513 242.013 961.224 242.279L961.214 242.28C958.828 242.571 956.27 242.835 954.303 242.054C953.392 241.692 952.629 241.108 952.067 240.146C951.49 239.155 951.061 237.648 951.061 235.343C951.061 232.857 951.567 231.03 952.352 229.667C953.132 228.311 954.244 227.315 955.621 226.579C958.449 225.068 962.301 224.693 966.261 224.693Z" fill="#349CEA" stroke="#349CEA" stroke-width="3.29725"/>
<path d="M804.042 224.759C808.022 224.759 811.872 225.126 814.694 226.634C816.067 227.367 817.176 228.36 817.954 229.717C818.736 231.08 819.242 232.913 819.242 235.409C819.242 237.714 818.813 239.221 818.235 240.212C817.674 241.174 816.909 241.758 815.999 242.12C814.036 242.9 811.483 242.638 809.101 242.346H809.102C806.777 242.043 803.274 241.772 801.173 241.772C790.688 241.772 780.193 248.603 779.284 261.046L779.248 261.642L776.973 309.385C776.132 326.749 769.737 339.521 757.593 345.718L754.715 347.185L757.593 348.654C769.547 354.754 775.931 367.225 776.93 384.176L776.973 384.986L779.248 432.729C779.86 445.502 790.505 452.598 800.909 452.598C803.014 452.598 806.779 452.293 809.108 452.027L809.122 452.026C811.508 451.734 814.066 451.47 816.032 452.252C816.943 452.613 817.707 453.197 818.269 454.16C818.846 455.15 819.274 456.658 819.274 458.963C819.274 461.448 818.768 463.276 817.984 464.638C817.204 465.995 816.091 466.989 814.714 467.725C811.886 469.237 808.034 469.612 804.074 469.612C791.777 469.612 781.289 466.332 773.739 460.528C766.216 454.745 761.522 446.393 760.844 436.005L757.712 383.127V383.117L757.652 382.28C756.995 373.692 754.951 367.113 751.048 362.641C747.146 358.171 741.609 356.055 734.506 355.872L734.466 355.792H733.447C730.435 355.792 728.079 355.004 726.498 353.626C724.951 352.277 723.951 350.192 723.951 347.153C723.951 344.114 724.951 342.028 726.498 340.679C728.079 339.301 730.435 338.513 733.447 338.513C741.044 338.513 746.926 336.413 751.015 331.73C755.044 327.115 757.092 320.254 757.679 311.256C758.84 293.705 759.686 274.152 760.811 258.376L760.812 258.366C761.489 247.978 766.183 239.627 773.706 233.844C781.256 228.039 791.744 224.759 804.042 224.759Z" fill="#349CEA" stroke="#349CEA" stroke-width="3.29725"/>
<path d="M880.172 391.845C884.426 391.845 887.875 388.396 887.875 384.141C887.875 379.887 884.426 376.438 880.172 376.438L838.276 376.438C834.021 376.438 830.572 379.887 830.572 384.141C830.572 388.396 834.021 391.845 838.276 391.845L880.172 391.845Z" fill="#00217E"/>
<path d="M911.609 356.436C915.863 356.436 919.312 352.987 919.312 348.733C919.312 344.478 915.863 341.029 911.609 341.029L838.276 341.029C834.021 341.029 830.572 344.478 830.572 348.733C830.572 352.987 834.021 356.436 838.276 356.436L911.609 356.436Z" fill="#00217E"/>
<path d="M939.844 321.027L940.24 321.018C944.311 320.811 947.548 317.445 947.548 313.324C947.548 309.202 944.311 305.836 940.24 305.63L939.844 305.621L838.276 305.621C834.021 305.621 830.572 309.069 830.572 313.324C830.572 317.578 834.021 321.027 838.276 321.027L939.844 321.027Z" fill="#00217E"/>
<path d="M532.798 669.658V697.43C532.798 700.504 531.914 702.942 530.148 704.744C528.416 706.511 525.978 707.394 522.834 707.394C519.442 707.394 516.774 706.405 514.831 704.426C512.923 702.412 511.969 699.603 511.969 695.999H516.792C516.792 698.154 517.269 699.868 518.223 701.14C519.177 702.377 520.643 702.995 522.622 702.995C524.494 702.995 525.855 702.465 526.703 701.405C527.551 700.345 527.975 699.02 527.975 697.43V669.658H532.798ZM554.865 677.555C557.692 677.555 560.077 678.262 562.02 679.675C563.999 681.088 565.377 682.979 566.154 685.346V677.926H570.977V707.023H566.154V699.603C565.377 701.97 563.999 703.861 562.02 705.274C560.077 706.687 557.692 707.394 554.865 707.394C552.286 707.394 549.989 706.793 547.975 705.592C545.961 704.391 544.371 702.677 543.205 700.451C542.075 698.19 541.509 695.54 541.509 692.501C541.509 689.462 542.075 686.812 543.205 684.551C544.371 682.29 545.961 680.558 547.975 679.357C549.989 678.156 552.286 677.555 554.865 677.555ZM556.243 681.848C553.275 681.848 550.89 682.802 549.088 684.71C547.322 686.583 546.438 689.18 546.438 692.501C546.438 695.822 547.322 698.437 549.088 700.345C550.89 702.218 553.275 703.154 556.243 703.154C558.151 703.154 559.847 702.712 561.331 701.829C562.851 700.946 564.034 699.709 564.882 698.119C565.73 696.494 566.154 694.621 566.154 692.501C566.154 690.381 565.73 688.508 564.882 686.883C564.034 685.258 562.851 684.021 561.331 683.173C559.847 682.29 558.151 681.848 556.243 681.848ZM594.182 677.555C597.892 677.555 600.966 678.544 603.404 680.523C605.842 682.502 607.344 685.152 607.909 688.473H602.821C602.468 686.388 601.496 684.763 599.906 683.597C598.352 682.396 596.408 681.795 594.076 681.795C592.38 681.795 590.826 682.184 589.412 682.961C588.034 683.738 586.921 684.94 586.073 686.565C585.225 688.155 584.801 690.134 584.801 692.501C584.801 694.868 585.225 696.865 586.073 698.49C586.921 700.08 588.034 701.264 589.412 702.041C590.826 702.818 592.38 703.207 594.076 703.207C596.408 703.207 598.352 702.606 599.906 701.405C601.496 700.204 602.468 698.561 602.821 696.476H607.909C607.344 699.833 605.842 702.5 603.404 704.479C600.966 706.422 597.892 707.394 594.182 707.394C591.391 707.394 588.918 706.793 586.762 705.592C584.607 704.391 582.911 702.677 581.674 700.451C580.473 698.19 579.872 695.54 579.872 692.501C579.872 689.462 580.473 686.812 581.674 684.551C582.911 682.29 584.607 680.558 586.762 679.357C588.918 678.156 591.391 677.555 594.182 677.555ZM632.188 677.449C635.58 677.449 638.319 678.544 640.403 680.735C642.488 682.89 643.53 686.017 643.53 690.116V707.023H638.707V690.54C638.707 687.643 637.965 685.417 636.481 683.862C634.997 682.307 632.983 681.53 630.439 681.53C627.789 681.53 625.669 682.396 624.079 684.127C622.489 685.823 621.694 688.314 621.694 691.6V707.023H616.871V667.803H621.694V684.816C622.436 682.449 623.744 680.629 625.616 679.357C627.524 678.085 629.715 677.449 632.188 677.449ZM655.592 677.926L665.026 700.822L673.771 677.926H679.124L661.846 720.803H656.387L662.429 706.546L650.186 677.926H655.592ZM721.971 677.449C725.363 677.449 728.083 678.544 730.133 680.735C732.217 682.89 733.26 686.017 733.26 690.116V707.023H728.437V690.54C728.437 687.678 727.73 685.487 726.317 683.968C724.939 682.449 723.031 681.689 720.593 681.689C718.049 681.689 715.999 682.537 714.445 684.233C712.925 685.894 712.166 688.349 712.166 691.6V707.023H707.343V690.54C707.343 687.678 706.636 685.487 705.223 683.968C703.809 682.449 701.901 681.689 699.499 681.689C696.919 681.689 694.852 682.537 693.298 684.233C691.778 685.894 691.019 688.349 691.019 691.6V707.023H686.196V677.926H691.019V684.551C691.725 682.254 692.98 680.505 694.782 679.304C696.619 678.067 698.721 677.449 701.089 677.449C703.562 677.449 705.7 678.085 707.502 679.357C709.339 680.594 710.646 682.431 711.424 684.869C712.236 682.502 713.597 680.682 715.505 679.41C717.413 678.103 719.568 677.449 721.971 677.449ZM770.163 690.858C770.163 691.883 770.093 692.766 769.951 693.508H746.684C746.79 696.829 747.727 699.32 749.493 700.981C751.295 702.642 753.486 703.472 756.065 703.472C758.397 703.472 760.341 702.889 761.895 701.723C763.485 700.522 764.457 698.932 764.81 696.953H769.951C769.598 698.967 768.803 700.769 767.566 702.359C766.365 703.949 764.793 705.186 762.849 706.069C760.906 706.952 758.715 707.394 756.277 707.394C753.486 707.394 751.013 706.793 748.857 705.592C746.702 704.391 745.006 702.677 743.769 700.451C742.568 698.19 741.967 695.54 741.967 692.501C741.967 689.462 742.568 686.812 743.769 684.551C745.006 682.29 746.702 680.558 748.857 679.357C751.013 678.156 753.486 677.555 756.277 677.555C759.104 677.555 761.56 678.156 763.644 679.357C765.764 680.558 767.372 682.166 768.467 684.18C769.598 686.194 770.163 688.42 770.163 690.858ZM765.287 691.176C765.393 689.021 765.04 687.219 764.227 685.77C763.415 684.321 762.302 683.244 760.888 682.537C759.475 681.83 757.938 681.477 756.277 681.477C753.627 681.477 751.401 682.307 749.599 683.968C747.797 685.593 746.826 687.996 746.684 691.176H765.287ZM810.183 677.449C813.575 677.449 816.314 678.544 818.398 680.735C820.483 682.89 821.525 686.017 821.525 690.116V707.023H816.702V690.54C816.702 687.643 815.96 685.417 814.476 683.862C812.992 682.307 810.978 681.53 808.434 681.53C805.784 681.53 803.664 682.396 802.074 684.127C800.484 685.823 799.689 688.314 799.689 691.6V707.023H794.866V667.803H799.689V684.816C800.431 682.449 801.739 680.629 803.611 679.357C805.519 678.085 807.71 677.449 810.183 677.449ZM844.77 677.555C847.561 677.555 850.052 678.156 852.243 679.357C854.469 680.558 856.2 682.29 857.437 684.551C858.709 686.812 859.345 689.462 859.345 692.501C859.345 695.54 858.709 698.19 857.437 700.451C856.2 702.677 854.469 704.391 852.243 705.592C850.052 706.793 847.561 707.394 844.77 707.394C841.979 707.394 839.47 706.793 837.244 705.592C835.053 704.391 833.322 702.677 832.05 700.451C830.778 698.19 830.142 695.54 830.142 692.501C830.142 689.462 830.778 686.812 832.05 684.551C833.322 682.29 835.053 680.558 837.244 679.357C839.47 678.156 841.979 677.555 844.77 677.555ZM844.77 681.795C843.039 681.795 841.431 682.184 839.947 682.961C838.498 683.738 837.315 684.94 836.396 686.565C835.513 688.155 835.071 690.134 835.071 692.501C835.071 694.833 835.513 696.812 836.396 698.437C837.315 700.027 838.498 701.211 839.947 701.988C841.431 702.765 843.039 703.154 844.77 703.154C846.501 703.154 848.091 702.765 849.54 701.988C851.024 701.211 852.208 700.027 853.091 698.437C854.01 696.812 854.469 694.833 854.469 692.501C854.469 690.134 854.01 688.155 853.091 686.565C852.208 684.94 851.024 683.738 849.54 682.961C848.091 682.184 846.501 681.795 844.77 681.795ZM880.205 677.555C883.031 677.555 885.416 678.262 887.36 679.675C889.338 681.088 890.716 682.979 891.494 685.346V667.803H896.317V707.023H891.494V699.603C890.716 701.97 889.338 703.861 887.36 705.274C885.416 706.687 883.031 707.394 880.205 707.394C877.625 707.394 875.329 706.793 873.315 705.592C871.301 704.391 869.711 702.677 868.545 700.451C867.414 698.19 866.849 695.54 866.849 692.501C866.849 689.462 867.414 686.812 868.545 684.551C869.711 682.29 871.301 680.558 873.315 679.357C875.329 678.156 877.625 677.555 880.205 677.555ZM881.583 681.848C878.615 681.848 876.23 682.802 874.428 684.71C872.661 686.583 871.778 689.18 871.778 692.501C871.778 695.822 872.661 698.437 874.428 700.345C876.23 702.218 878.615 703.154 881.583 703.154C883.491 703.154 885.187 702.712 886.671 701.829C888.19 700.946 889.374 699.709 890.222 698.119C891.07 696.494 891.494 694.621 891.494 692.501C891.494 690.381 891.07 688.508 890.222 686.883C889.374 685.258 888.19 684.021 886.671 683.173C885.187 682.29 883.491 681.848 881.583 681.848ZM937.704 677.449C941.096 677.449 943.835 678.544 945.919 680.735C948.004 682.89 949.046 686.017 949.046 690.116V707.023H944.223V690.54C944.223 687.643 943.481 685.417 941.997 683.862C940.513 682.307 938.499 681.53 935.955 681.53C933.305 681.53 931.185 682.396 929.595 684.127C928.005 685.823 927.21 688.314 927.21 691.6V707.023H922.387V667.803H927.21V684.816C927.952 682.449 929.26 680.629 931.132 679.357C933.04 678.085 935.231 677.449 937.704 677.449ZM972.291 677.555C975.082 677.555 977.573 678.156 979.764 679.357C981.99 680.558 983.721 682.29 984.958 684.551C986.23 686.812 986.866 689.462 986.866 692.501C986.866 695.54 986.23 698.19 984.958 700.451C983.721 702.677 981.99 704.391 979.764 705.592C977.573 706.793 975.082 707.394 972.291 707.394C969.5 707.394 966.991 706.793 964.765 705.592C962.574 704.391 960.843 702.677 959.571 700.451C958.299 698.19 957.663 695.54 957.663 692.501C957.663 689.462 958.299 686.812 959.571 684.551C960.843 682.29 962.574 680.558 964.765 679.357C966.991 678.156 969.5 677.555 972.291 677.555ZM972.291 681.795C970.56 681.795 968.952 682.184 967.468 682.961C966.019 683.738 964.836 684.94 963.917 686.565C963.034 688.155 962.592 690.134 962.592 692.501C962.592 694.833 963.034 696.812 963.917 698.437C964.836 700.027 966.019 701.211 967.468 701.988C968.952 702.765 970.56 703.154 972.291 703.154C974.022 703.154 975.612 702.765 977.061 701.988C978.545 701.211 979.729 700.027 980.612 698.437C981.531 696.812 981.99 694.833 981.99 692.501C981.99 690.134 981.531 688.155 980.612 686.565C979.729 684.94 978.545 683.738 977.061 682.961C975.612 682.184 974.022 681.795 972.291 681.795ZM1023.47 677.555C1026.3 677.555 1028.68 678.262 1030.63 679.675C1032.6 681.088 1033.98 682.979 1034.76 685.346V667.803H1039.58V707.023H1034.76V699.603C1033.98 701.97 1032.6 703.861 1030.63 705.274C1028.68 706.687 1026.3 707.394 1023.47 707.394C1020.89 707.394 1018.59 706.793 1016.58 705.592C1014.57 704.391 1012.98 702.677 1011.81 700.451C1010.68 698.19 1010.11 695.54 1010.11 692.501C1010.11 689.462 1010.68 686.812 1011.81 684.551C1012.98 682.29 1014.57 680.558 1016.58 679.357C1018.59 678.156 1020.89 677.555 1023.47 677.555ZM1024.85 681.848C1021.88 681.848 1019.5 682.802 1017.69 684.71C1015.93 686.583 1015.04 689.18 1015.04 692.501C1015.04 695.822 1015.93 698.437 1017.69 700.345C1019.5 702.218 1021.88 703.154 1024.85 703.154C1026.76 703.154 1028.45 702.712 1029.94 701.829C1031.46 700.946 1032.64 699.709 1033.49 698.119C1034.34 696.494 1034.76 694.621 1034.76 692.501C1034.76 690.381 1034.34 688.508 1033.49 686.883C1032.64 685.258 1031.46 684.021 1029.94 683.173C1028.45 682.29 1026.76 681.848 1024.85 681.848ZM1063.11 677.555C1065.9 677.555 1068.39 678.156 1070.58 679.357C1072.8 680.558 1074.54 682.29 1075.77 684.551C1077.04 686.812 1077.68 689.462 1077.68 692.501C1077.68 695.54 1077.04 698.19 1075.77 700.451C1074.54 702.677 1072.8 704.391 1070.58 705.592C1068.39 706.793 1065.9 707.394 1063.11 707.394C1060.31 707.394 1057.81 706.793 1055.58 705.592C1053.39 704.391 1051.66 702.677 1050.39 700.451C1049.11 698.19 1048.48 695.54 1048.48 692.501C1048.48 689.462 1049.11 686.812 1050.39 684.551C1051.66 682.29 1053.39 680.558 1055.58 679.357C1057.81 678.156 1060.31 677.555 1063.11 677.555ZM1063.11 681.795C1061.37 681.795 1059.77 682.184 1058.28 682.961C1056.83 683.738 1055.65 684.94 1054.73 686.565C1053.85 688.155 1053.41 690.134 1053.41 692.501C1053.41 694.833 1053.85 696.812 1054.73 698.437C1055.65 700.027 1056.83 701.211 1058.28 701.988C1059.77 702.765 1061.37 703.154 1063.11 703.154C1064.84 703.154 1066.43 702.765 1067.88 701.988C1069.36 701.211 1070.54 700.027 1071.43 698.437C1072.34 696.812 1072.8 694.833 1072.8 692.501C1072.8 690.134 1072.34 688.155 1071.43 686.565C1070.54 684.94 1069.36 683.738 1067.88 682.961C1066.43 682.184 1064.84 681.795 1063.11 681.795ZM1111.48 677.555C1114.76 677.555 1117.39 678.421 1119.37 680.152C1121.39 681.848 1122.61 684.145 1123.03 687.042H1118.42C1118.21 685.311 1117.48 683.897 1116.25 682.802C1115.04 681.671 1113.42 681.106 1111.37 681.106C1109.64 681.106 1108.28 681.53 1107.29 682.378C1106.33 683.191 1105.86 684.304 1105.86 685.717C1105.86 686.777 1106.18 687.643 1106.81 688.314C1107.48 688.95 1108.3 689.445 1109.25 689.798C1110.24 690.116 1111.58 690.469 1113.28 690.858C1115.43 691.353 1117.16 691.865 1118.47 692.395C1119.81 692.89 1120.94 693.702 1121.86 694.833C1122.82 695.964 1123.29 697.483 1123.29 699.391C1123.29 701.758 1122.39 703.684 1120.59 705.168C1118.82 706.652 1116.46 707.394 1113.49 707.394C1110.03 707.394 1107.2 706.564 1105.01 704.903C1102.82 703.242 1101.53 700.928 1101.14 697.96H1105.8C1105.98 699.727 1106.74 701.158 1108.08 702.253C1109.46 703.348 1111.26 703.896 1113.49 703.896C1115.15 703.896 1116.44 703.472 1117.36 702.624C1118.31 701.776 1118.79 700.663 1118.79 699.285C1118.79 698.154 1118.45 697.253 1117.78 696.582C1117.11 695.911 1116.28 695.398 1115.29 695.045C1114.3 694.692 1112.94 694.321 1111.21 693.932C1109.06 693.437 1107.32 692.943 1106.02 692.448C1104.74 691.953 1103.65 691.176 1102.73 690.116C1101.85 689.021 1101.41 687.554 1101.41 685.717C1101.41 683.279 1102.31 681.318 1104.11 679.834C1105.91 678.315 1108.37 677.555 1111.48 677.555ZM1146.28 702.783V707.023H1142.67C1139.7 707.023 1137.48 706.316 1135.99 704.903C1134.54 703.49 1133.82 701.122 1133.82 697.801V682.113H1129.47V677.926H1133.82V670.665H1138.7V677.926H1146.22V682.113H1138.7V697.907C1138.7 699.78 1139.03 701.069 1139.7 701.776C1140.41 702.447 1141.61 702.783 1143.31 702.783H1146.28ZM1159.63 683.809C1160.59 681.795 1161.98 680.24 1163.82 679.145C1165.66 678.014 1167.85 677.449 1170.39 677.449V682.696H1168.91C1166.19 682.696 1163.96 683.403 1162.23 684.816C1160.5 686.194 1159.63 688.491 1159.63 691.706V707.023H1154.81V677.926H1159.63V683.809ZM1191 677.555C1193.79 677.555 1196.28 678.156 1198.47 679.357C1200.7 680.558 1202.43 682.29 1203.67 684.551C1204.94 686.812 1205.57 689.462 1205.57 692.501C1205.57 695.54 1204.94 698.19 1203.67 700.451C1202.43 702.677 1200.7 704.391 1198.47 705.592C1196.28 706.793 1193.79 707.394 1191 707.394C1188.21 707.394 1185.7 706.793 1183.47 705.592C1181.28 704.391 1179.55 702.677 1178.28 700.451C1177.01 698.19 1176.37 695.54 1176.37 692.501C1176.37 689.462 1177.01 686.812 1178.28 684.551C1179.55 682.29 1181.28 680.558 1183.47 679.357C1185.7 678.156 1188.21 677.555 1191 677.555ZM1191 681.795C1189.27 681.795 1187.66 682.184 1186.18 682.961C1184.73 683.738 1183.54 684.94 1182.62 686.565C1181.74 688.155 1181.3 690.134 1181.3 692.501C1181.3 694.833 1181.74 696.812 1182.62 698.437C1183.54 700.027 1184.73 701.211 1186.18 701.988C1187.66 702.765 1189.27 703.154 1191 703.154C1192.73 703.154 1194.32 702.765 1195.77 701.988C1197.25 701.211 1198.44 700.027 1199.32 698.437C1200.24 696.812 1200.7 694.833 1200.7 692.501C1200.7 690.134 1200.24 688.155 1199.32 686.565C1198.44 684.94 1197.25 683.738 1195.77 682.961C1194.32 682.184 1192.73 681.795 1191 681.795ZM1217.26 672.361C1216.28 672.361 1215.46 672.096 1214.83 671.566C1214.23 671.001 1213.93 670.276 1213.93 669.393C1213.93 668.51 1214.23 667.803 1214.83 667.273C1215.46 666.708 1216.28 666.425 1217.26 666.425C1218.22 666.425 1219 666.708 1219.6 667.273C1220.2 667.803 1220.5 668.51 1220.5 669.393C1220.5 670.276 1220.2 671.001 1219.6 671.566C1219 672.096 1218.22 672.361 1217.26 672.361ZM1209.16 716.563H1211.17C1212.44 716.563 1213.36 716.28 1213.93 715.715C1214.53 715.15 1214.83 714.178 1214.83 712.8V677.926H1219.7V712.959C1219.7 718.188 1217.05 720.803 1211.75 720.803H1209.16V716.563ZM1256.81 690.858C1256.81 691.883 1256.74 692.766 1256.6 693.508H1233.33C1233.44 696.829 1234.37 699.32 1236.14 700.981C1237.94 702.642 1240.13 703.472 1242.71 703.472C1245.05 703.472 1246.99 702.889 1248.54 701.723C1250.13 700.522 1251.1 698.932 1251.46 696.953H1256.6C1256.25 698.967 1255.45 700.769 1254.21 702.359C1253.01 703.949 1251.44 705.186 1249.5 706.069C1247.55 706.952 1245.36 707.394 1242.93 707.394C1240.13 707.394 1237.66 706.793 1235.51 705.592C1233.35 704.391 1231.65 702.677 1230.42 700.451C1229.22 698.19 1228.62 695.54 1228.62 692.501C1228.62 689.462 1229.22 686.812 1230.42 684.551C1231.65 682.29 1233.35 680.558 1235.51 679.357C1237.66 678.156 1240.13 677.555 1242.93 677.555C1245.75 677.555 1248.21 678.156 1250.29 679.357C1252.41 680.558 1254.02 682.166 1255.12 684.18C1256.25 686.194 1256.81 688.42 1256.81 690.858ZM1251.94 691.176C1252.04 689.021 1251.69 687.219 1250.88 685.77C1250.06 684.321 1248.95 683.244 1247.54 682.537C1246.12 681.83 1244.59 681.477 1242.93 681.477C1240.28 681.477 1238.05 682.307 1236.25 683.968C1234.45 685.593 1233.47 687.996 1233.33 691.176H1251.94Z" fill="#A6A6A6"/>
</svg>
