<svg width="411" height="411" viewBox="0 0 411 411" fill="none" xmlns="http://www.w3.org/2000/svg">
<rect x="0.646484" y="0.68457" width="410" height="410" rx="41.0243" fill="#00217E"/>
<path d="M266.599 113.66C275.84 113.66 283.721 116.124 289.395 120.486C295.048 124.832 298.576 131.108 299.085 138.915L299.086 138.924C299.954 150.752 300.593 165.496 301.438 178.657V178.658C301.879 185.42 303.418 190.577 306.446 194.046C309.518 197.565 313.939 199.143 319.647 199.143C321.911 199.143 323.682 199.735 324.87 200.771C326.032 201.785 326.784 203.352 326.784 205.635C326.784 207.919 326.032 209.486 324.87 210.5C323.682 211.535 321.911 212.127 319.647 212.127C313.939 212.127 309.518 213.705 306.446 217.224C303.457 220.649 301.921 225.719 301.458 232.356L301.429 232.416L301.413 232.669L299.06 272.413C298.548 280.216 295.021 286.489 289.37 290.834C283.697 295.195 275.815 297.66 266.573 297.66C263.582 297.66 260.689 297.384 258.568 296.252C257.536 295.7 256.703 294.954 256.118 293.934C255.531 292.909 255.151 291.532 255.151 289.657C255.151 287.925 255.473 286.792 255.907 286.047C256.329 285.324 256.904 284.886 257.588 284.614C259.063 284.028 260.982 284.223 262.771 284.442V284.443C264.525 284.672 267.379 284.875 268.952 284.875C276.772 284.875 284.743 279.566 285.229 269.947V269.943L286.939 234.066C287.571 221.018 292.378 211.42 301.504 206.763L303.666 205.66L301.504 204.556C292.378 199.9 287.571 190.302 286.939 177.254L285.229 141.377C284.769 131.769 276.76 126.445 268.754 126.445C267.168 126.445 264.534 126.675 262.813 126.875L262.806 126.876C261.013 127.095 259.09 127.293 257.612 126.706C256.928 126.434 256.353 125.995 255.932 125.272C255.498 124.528 255.176 123.395 255.176 121.663C255.176 119.795 255.556 118.421 256.146 117.397C256.732 116.378 257.569 115.63 258.604 115.077C260.729 113.941 263.623 113.66 266.599 113.66Z" fill="#349CEA" stroke="#349CEA" stroke-width="2.47779"/>
<path d="M144.696 113.709C147.687 113.709 150.58 113.985 152.701 115.118C153.733 115.669 154.567 116.415 155.151 117.435C155.739 118.46 156.118 119.837 156.118 121.712C156.118 123.444 155.796 124.577 155.362 125.322C154.941 126.045 154.366 126.483 153.682 126.755C152.206 127.341 150.287 127.145 148.497 126.926H148.498C146.751 126.698 144.119 126.495 142.54 126.495C134.536 126.495 126.525 131.792 126.064 141.426L124.354 177.303C123.723 190.351 118.917 199.949 109.791 204.606L107.628 205.709L109.791 206.813C118.631 211.324 123.418 220.472 124.283 232.902L124.354 234.116L126.064 269.993C126.524 279.591 134.523 284.924 142.342 284.924C143.923 284.924 146.753 284.696 148.504 284.495L148.514 284.494C150.306 284.274 152.229 284.076 153.707 284.663C154.391 284.935 154.965 285.374 155.387 286.097C155.821 286.841 156.144 287.975 156.144 289.706C156.144 291.574 155.762 292.948 155.173 293.972C154.586 294.991 153.75 295.738 152.716 296.291C150.591 297.427 147.696 297.709 144.721 297.709C135.48 297.709 127.598 295.245 121.925 290.883C116.448 286.673 112.966 280.652 112.291 273.182L112.234 272.454L109.881 232.718L109.88 232.711L109.785 231.462C109.242 225.311 107.712 220.576 104.873 217.324C101.941 213.964 97.7798 212.375 92.4424 212.237L92.4121 212.176H91.6465C89.3831 212.176 87.6117 211.585 86.4238 210.549C85.2616 209.536 84.5108 207.968 84.5107 205.685C84.5107 203.402 85.2617 201.834 86.4238 200.821C87.6117 199.785 89.3831 199.193 91.6465 199.193C97.3555 199.193 101.776 197.614 104.848 194.095C107.875 190.627 109.415 185.471 109.855 178.709C110.728 165.52 111.364 150.826 112.209 138.971V138.964C112.718 131.158 116.246 124.882 121.899 120.536C127.573 116.174 135.455 113.709 144.696 113.709Z" fill="#349CEA" stroke="#349CEA" stroke-width="2.47779"/>
<path d="M201.906 239.269C205.103 239.269 207.694 236.678 207.694 233.48C207.694 230.283 205.103 227.692 201.906 227.692L170.422 227.692C167.225 227.692 164.633 230.283 164.633 233.48C164.633 236.678 167.225 239.269 170.422 239.269L201.906 239.269Z" fill="white"/>
<path d="M225.53 212.661C228.727 212.661 231.318 210.069 231.318 206.872C231.318 203.675 228.727 201.083 225.53 201.083L170.422 201.083C167.225 201.083 164.633 203.675 164.633 206.872C164.633 210.069 167.225 212.661 170.422 212.661L225.53 212.661Z" fill="white"/>
<path d="M246.748 186.052L247.045 186.045C250.104 185.89 252.537 183.36 252.537 180.263C252.537 177.166 250.104 174.636 247.045 174.481L246.748 174.474L170.422 174.474C167.225 174.474 164.633 177.066 164.633 180.263C164.633 183.46 167.225 186.052 170.422 186.052L246.748 186.052Z" fill="white"/>
</svg>
